<?xml version="1.0" standalone="no"?>
<!DOCTYPE svg PUBLIC "-//W3C//DTD SVG 1.1//EN" "http://www.w3.org/Graphics/SVG/1.1/DTD/svg11.dtd" >
<svg xmlns="http://www.w3.org/2000/svg">
<metadata>
This is a custom SVG webfont generated by Font Squirrel.
Copyright   : Copyright  2011 by Eric A Meyer All rights reserved
Designer    : Eric A Meyer
</metadata>
<defs>
<font id="GreenMudJJRegular" horiz-adv-x="512" >
<font-face units-per-em="2048" ascent="1434" descent="-614" />
<missing-glyph horiz-adv-x="500" />
<glyph unicode=" " />
<glyph unicode="!" horiz-adv-x="387" d="M139 45l4 -8q2 -4 2 -8l25 -49l20 8q20 -14 46 -15q14 0 22 7q31 23 27 67q-2 4 -5.5 14.5t-6.5 21.5t-5 21l-41 -12l-2 2q-14 14 -30.5 17.5t-24.5 0.5t-12 -8q-33 -18 -19 -57v-2zM174 367h68q0 45 26 254q41 285 51 466q14 276 -55 338q-35 31 -84 17l19 -66 q10 4 20 -2q47 -39 33 -282q-6 -127 -49 -463q-29 -207 -29 -262z" />
<glyph unicode="&#x22;" horiz-adv-x="563" d="M68 1151q-4 -139 12 -211h88q-4 4 -8 84t-2 127q4 109 16 160l-86 20q-8 -33 -20 -180zM354 1151q-4 -139 13 -211h88q-4 4 -8.5 84t-2.5 127q4 109 17 160l-86 20q-9 -33 -21 -180z" />
<glyph unicode="#" horiz-adv-x="899" d="M33 444q111 12 170 15q8 37 27.5 125t29.5 137q-106 6 -197 20l15 78q90 -14 196 -20q53 299 54 508h80q0 -217 -54 -512q90 -6 209 2q53 225 146 432l73 -33q-84 -180 -135 -393q106 14 189 33l18 -78q-117 -27 -225 -35q-20 -96 -47 -262h180v-78h-193 q-49 -272 -82 -399l-77 20q33 123 79 379q-78 2 -225 -2l-5 -21l-5 -20q-59 -258 -78 -356l-78 16q16 80 80 356q4 12 4 21q-68 -2 -139 -12zM283 461q111 4 219 0q25 152 45 256q-35 -2 -109 -2q-66 0 -100 2q-10 -51 -31.5 -147.5t-23.5 -108.5z" />
<glyph unicode="$" horiz-adv-x="741" d="M33 147l73 39q31 -59 83.5 -86.5t95.5 -24.5t75 7q6 96 43 483q-287 270 -217 502q31 84 99.5 132t150.5 56q0 55 -8 179l70 6q8 -133 10 -191q102 -23 147 -121l-77 -34q-23 49 -68 67q4 -207 -23 -561q31 -29 49.5 -45t45 -43t40 -47.5t29 -48t19.5 -52t4 -56.5 t-10 -64q-49 -158 -230 -226q-16 -147 -22 -276l-74 6q12 160 16 248q-227 -35 -321 151zM268 1038q-51 -158 146 -366q27 309 24 499q-53 -4 -102.5 -39t-67.5 -94zM444 115q125 66 141.5 174t-98.5 203l-4 2q-4 2 -4 4q-4 -37 -12 -130.5t-14.5 -160.5t-8.5 -92z" />
<glyph unicode="%" horiz-adv-x="800" d="M33 0l61 -39q172 274 410 793q139 305 229 475l-63 33q-98 -184 -232 -478q-247 -538 -405 -784zM109 858q-8 -78 20 -110q14 -18 43 -19q2 0 7 1t7 1q25 6 58 27q70 51 102 153q27 82 12 160q-18 70 -67 80h-12q2 4 6 10t4 8l-53 45q-47 -57 -97 -221q-20 -72 -30 -135z M178 801q-6 59 33 180q2 10 7 26.5t7 20.5q35 51 54 51q12 -12 12 -55q2 -55 -21.5 -114.5t-68.5 -92.5q-11 -10 -23 -16zM424 119q25 -25 53 -25q12 0 43 10q68 25 121 84q68 72 66 138q-14 98 -154 129l-16 -70q57 -10 86 -39q16 -16 10 -39q-6 -49 -74 -98 q-47 -37 -74 -41q10 47 101 164l-56 45q-78 -104 -98 -154q-35 -63 -8 -104z" />
<glyph unicode="&#x26;" horiz-adv-x="483" d="M33 303q-4 55 31.5 111.5t69.5 85t102 78.5q14 8 39.5 31.5t43.5 41.5l19 19q0 29 -125 75q-6 2 -25.5 10.5t-26.5 12.5t-24.5 12t-26 14.5t-21.5 15.5t-20.5 17.5t-15.5 18.5t-11 22.5t-3 24.5q-4 66 80 133q39 33 117 82q4 74 4 113q4 147 14 223l78 -10 q-10 -70 -15 -215q0 -43 -2 -66q10 6 28.5 15.5t25.5 13.5l37 -70q-289 -150 -289 -217q2 -20 127 -78q121 -51 149 -86q23 -29 23 -61q0 -39 -32 -72t-101 -84q-55 -39 -86 -63.5t-59.5 -64.5t-26.5 -77q6 -106 258 -241l-37 -68q-14 6 -29 16q2 -113 -4 -319h-78 q6 229 2 364q-80 59 -112 95q-72 71 -78 147z" />
<glyph unicode="'" horiz-adv-x="276" d="M68 1151q-4 -139 12 -211h88q-4 4 -8 84t-2 127q4 109 16 160l-86 20q-8 -33 -20 -180z" />
<glyph unicode="(" horiz-adv-x="413" d="M35 651q12 -231 78 -454q61 -213 157 -367l58 35q-92 147 -153.5 361t-72.5 427q-25 526 244 781l-45 49q-152 -141 -219 -375q-59 -207 -47 -457z" />
<glyph unicode=")" horiz-adv-x="419" d="M33 1434q494 -987 16 -1624l55 -39q145 195 203 411q55 207 41 432q-12 205 -84 433q-61 203 -170 417z" />
<glyph unicode="*" horiz-adv-x="561" d="M33 1069l6 66q92 -8 133 -11q-78 113 -119 238l62 22q31 -96 88 -188q0 135 26 252l64 -14q-29 -125 -25 -279q6 8 18.5 23.5t18.5 23.5q102 127 135 164l49 -43q-51 -57 -131 -162q-8 -12 -32 -41q80 0 157 13l11 -64q-98 -16 -187 -16l2 -4q2 -4 4 -5q90 -115 133 -186 l-55 -35q-41 66 -104 148q0 -8 3 -28.5t5 -31.5q4 -35 16 -135l-65 -8q-4 53 -17 135q-4 31 -12 88q-63 -70 -113 -112l-43 51q61 49 127 127q-3 0 -155 12z" />
<glyph unicode="+" horiz-adv-x="1363" d="M135 582v90h492q-12 221 16 467l90 -13q-29 -238 -16 -454h477v-90h-473q4 -35 8 -105q20 -291 21 -373h-91q0 76 -20 367q-2 20 -5 57t-3 54h-496z" />
<glyph unicode="," horiz-adv-x="327" d="M68 82l45 -80q6 8 12 8q12 -25 10 -98q-4 -72 -26 -158l86 -22q25 94 28 180q8 127 -43 170q-46 37 -112 0z" />
<glyph unicode="-" horiz-adv-x="614" d="M33 592q61 -4 146 -6t148.5 -2t135.5 1t84 1v80q-422 0 -508 6z" />
<glyph unicode="." horiz-adv-x="317" d="M70 53l4 -8q2 -4 2 -8q0 -2 22 -51l21 8q20 -16 43 -17q14 0 24 7q31 18 29 65l-14 57l-41 -10l-2 2q-33 37 -68 15q-31 -18 -20 -58v-2z" />
<glyph unicode="/" horiz-adv-x="628" d="M-23 -217l58 -25q420 1180 549 1512q10 29 33.5 84t33.5 82l-53 30q-8 -16 -33.5 -74.5t-38.5 -88.5q-129 -340 -549 -1520z" />
<glyph unicode="0" horiz-adv-x="1052" d="M102 465q6 -254 115 -383q80 -106 215 -107q184 0 324 177q102 131 155 319q55 203 33 397q-29 209 -145 312q-170 147 -459 24l22 -53q-113 -88 -176 -244q-88 -196 -84 -442zM174 463q-6 223 76 418q39 96 112.5 177t180.5 91l-6 37q133 16 217 -60q94 -82 118.5 -259 t-28.5 -375q-45 -164 -139.5 -292t-225.5 -151q-51 -12 -108.5 6.5t-100.5 71.5q-90 113 -96 336z" />
<glyph unicode="1" horiz-adv-x="673" d="M68 -25l6 64q74 -6 196 12q2 14 7.5 74.5t9.5 101.5q33 301 57 602q16 223 16 355q-31 -14 -176 -101l-22 -14l-29 57l213 125q33 16 53 4q8 -6 14.5 -23.5t8.5 -49t2 -59t-2 -72.5t-3 -70t-5 -71t-4 -58l-58 -631q-2 -29 -8 -82t-8 -76q158 35 235 39v-63 q-27 -2 -67.5 -8t-72.5 -12.5t-64.5 -13.5t-36.5 -7q0 -6 -1 -14.5t-1 -10.5l-64 4v9q-112 -21 -196 -11z" />
<glyph unicode="2" horiz-adv-x="882" d="M111 145q-23 -57 8 -110t86 -53q100 0 266 225q43 -31 98 -74q137 -111 199 -121l12 64q-39 8 -170 108q-57 47 -104 78q37 61 76 236.5t28 314.5q-10 141 -71 268q-72 147 -170 172q-135 31 -258 -166l57 -34q94 158 184 137q70 -18 126.5 -136t66.5 -245 q10 -129 -28 -295t-66 -217q-72 35 -121 20q-55 -16 -125.5 -64.5t-93.5 -107.5zM172 121q16 43 73.5 81t104.5 52l12 2q18 0 54 -14q-133 -184 -207 -195q-23 -4 -36 21.5t-1 52.5z" />
<glyph unicode="3" horiz-adv-x="765" d="M102 68q39 -57 113 -76t141 -8q86 10 164 61t109 137q29 78 33 143.5t-7.5 105.5t-42 77t-52 51t-56.5 37q-51 31 -51 41q0 16 45 55q104 88 110 215q6 115 -63 213q-80 104 -197 129t-231 -45l35 -57q109 57 195.5 33.5t141.5 -101.5q35 -47 48.5 -104t-6 -120.5 t-76.5 -111.5q-76 -61 -70 -110q2 -45 82 -92q86 -59 108 -103q45 -76 -8 -231q-27 -68 -88 -108t-131 -50q-135 -16 -192 57z" />
<glyph unicode="4" horiz-adv-x="712" d="M104.5 937q-6.5 114 12.5 300l63 -6q-16 -180 -12 -278.5t37 -135.5q43 -45 254 -49q18 270 49 471l63 -10q-31 -195 -49 -461q23 0 52.5 1t35.5 1v-65q-10 0 -39.5 -1.5t-50.5 -1.5q-12 -236 -12 -702h-64q0 467 11 702q-229 0 -297 72q-47 49 -53.5 163z" />
<glyph unicode="5" horiz-adv-x="825" d="M106 1171l15 66q68 -18 161 -20.5t203.5 5t139.5 7.5v-70q-23 0 -154 -6t-158 -6q-59 0 -118 6q4 -250 28 -369q25 -117 64 -133t121 41q29 14 38 20.5t35.5 17.5t42 13t36 1t38.5 -9q86 -39 117 -256q25 -182 -25 -303q-47 -111 -145 -164q-90 -47 -197.5 -35.5 t-181.5 78.5q-102 94 -45 224l61 -29q-35 -84 31 -146q51 -47 133 -58t166 28q178 92 137 393q-27 180 -80 207q-25 14 -84 -18.5t-125.5 -59.5t-109.5 -2q-66 35 -92 176q-27 123 -31 395q-13 4 -21 6z" />
<glyph unicode="6" horiz-adv-x="876" d="M102 455l43 -54q0 2 2 2q0 -45 9 -110q20 -168 94 -254q57 -66 135 -70h2q84 0 170 74q160 119 203 248q41 117 -29 207q-68 88 -210 99t-304 -67q4 70 8 99q29 195 99.5 353.5t171.5 246.5l-45 53q-119 -109 -195 -285q-72 -164 -96 -360q-8 -49 -13 -150 q-20 -12 -45 -32zM215 451q145 82 275.5 79.5t187.5 -75.5q51 -66 8 -163t-170 -196q-72 -55 -116 -59t-99 45q-90 113 -86 369z" />
<glyph unicode="7" horiz-adv-x="870" d="M102 1180v67h144q436 -2 471 -18q41 -18 49 -61.5t-16.5 -113t-57.5 -134t-88 -160.5q-31 -55 -57 -103q23 2 82 11l10 -70q-61 -8 -117 -12q-66 -244 -65 -586h-68q0 344 62 584q-74 0 -148 20l19 68q76 -20 149 -19q10 29 74 140q172 297 151 364q-2 4 -6 8 q-45 12 -444 13q-126 0 -144 2z" />
<glyph unicode="8" horiz-adv-x="849" d="M121 23q57 -88 321 -21q250 70 293 207q61 186 -196 498q2 4 18 30.5t19.5 32.5t16.5 29.5t17 33t13.5 30t13.5 32.5t11 30.5t11.5 36t6.5 35.5q29 139 -62.5 209t-288.5 70v-47q-115 2 -145 -53q-41 -78 192 -359q4 -6 7 -8q47 -53 88 -107q-35 -59 -131 -198 q-172 -252 -205 -340q-35 -92 0 -141zM176 59q-20 33 37 142q33 66 154.5 246t134.5 200q215 -281 170 -416q-39 -115 -246 -163q-223 -56 -250 -9zM229 1145q14 14 67.5 16t80.5 -4l6 49q168 -12 207 -88q35 -63 -4 -166.5t-92 -187.5q-166 195 -226 283q-47 73 -39 98z " />
<glyph unicode="9" horiz-adv-x="823" d="M108.5 981q-18.5 -94 38.5 -186q70 -92 173.5 -91t185.5 82q-2 -166 39 -563q18 -174 18 -223h68q0 61 -21 229q-43 403 -37 602q0 29 5 74q8 18 26.5 56t26.5 57q43 84 82 180q12 31 2 47q-18 23 -48 12.5t-59 -40.5q-100 59 -205.5 40.5t-193.5 -102.5 q-82 -80 -100.5 -174zM171 933q3 52 25.5 96t57.5 79q74 72 161 85t154 -32q-45 -88 -57 -237q-41 -76 -49 -86q-61 -66 -139 -66t-121 62q-35 47 -32 99z" />
<glyph unicode=":" horiz-adv-x="325" d="M104 643l2 -4q0 -2 2.5 -6t2.5 -8q0 -2 22 -52l21 9q20 -16 43 -17q16 0 24 6q31 18 29 66l-14 57l-41 -10l-2 2q-33 37 -68 14q-31 -18 -21 -57zM113 55l2 -2q0 -4 2 -8t2 -8q0 -2 22 -51l21 8q20 -16 43 -17q16 0 24 7q31 18 29 65l-14 57l-41 -10l-2 2q-33 37 -68 15 q-30 -19 -20 -58z" />
<glyph unicode=";" horiz-adv-x="358" d="M104 641l2 -2q0 -4 2.5 -8t2.5 -8q0 -2 22 -52l21 9q20 -16 43 -17q16 0 24 6q31 18 29 66l-14 57l-41 -10l-2 2q-33 37 -68 14q-31 -18 -21 -57zM133 82l45 -80q6 8 12 8q12 -25 11 -98q-4 -72 -27 -158l86 -22q25 94 29 180q8 127 -43 170q-47 37 -113 0z" />
<glyph unicode="&#x3c;" horiz-adv-x="942" d="M33 612q0 -37 25.5 -61.5t105.5 -77.5q344 -225 643 -536l67 63q-143 147 -289.5 272t-208 169t-159.5 110q-84 59 -88 63q23 20 100 72q2 2 43 32t53.5 39t55.5 40.5t66.5 52t68.5 56.5t81 68t83 72.5t95 87t99 95.5l-67 67q-291 -291 -631 -534q-84 -55 -114.5 -85 t-28.5 -65z" />
<glyph unicode="=" horiz-adv-x="1363" d="M135 733h1045v84h-1045v-84zM195 422q82 0 198.5 4t122.5 4q367 8 678 8v86q-129 0 -682 -8q-8 0 -122 -4t-195 -4v-86z" />
<glyph unicode="&#x3e;" horiz-adv-x="899" d="M33 0l67 -59q66 74 131.5 141.5t113.5 113.5t107.5 96t89 72.5t82 63.5t64.5 49q59 47 82 66.5t42 46t19 53.5q0 41 -35.5 76t-140.5 110q-203 154 -542 465l-64 -65q369 -338 553 -469q23 -18 59.5 -46t49.5 -38q10 -8 16 -15.5t10 -13.5l4 -4q-2 0 -4 -3t-8 -10 t-14 -14q-20 -23 -82 -67q-2 -2 -77 -59.5t-111.5 -87t-111.5 -95t-148.5 -141.5t-151.5 -166z" />
<glyph unicode="?" horiz-adv-x="624" d="M35 987l71 8q-16 139 46 265q57 119 129 133q41 8 88 -29q55 -51 98 -176q16 -47 19 -81t-11 -62.5t-27.5 -44t-48.5 -48.5q-39 -35 -55 -51t-47 -57t-51 -84q-76 -166 -64 -426l70 4q-4 106 7 192t26.5 138.5t49.5 102.5t53.5 70.5t57.5 57.5q76 72 97 119q31 80 -8 194 q-49 141 -117 203q-70 66 -152 47q-113 -23 -180 -172q-67 -135 -51 -303zM170 47l2 -2q0 -4 2 -8t2 -8l25 -49l20 8q20 -14 45 -15q12 0 23 7q31 23 26 67q-2 4 -5 14.5t-6 21.5t-5 21l-41 -12l-2 2q-14 14 -30.5 17.5t-24.5 0.5t-13 -8q-32 -18 -18 -57z" />
<glyph unicode="@" horiz-adv-x="1193" d="M27 610.5q0 -309.5 166 -491.5q137 -152 342.5 -138.5t449.5 191.5l-41 53q-457 -328 -700 -59q-147 164 -148 444q0 287 148 451q86 96 206.5 113.5t244.5 -28.5t257 -145q61 -43 87 -107.5t20 -123.5t-33 -119q-31 -70 -79 -114.5t-85 -36.5q-72 14 -71 227 q0 16 -7.5 25.5t-14.5 12.5t-11 3q-12 2 -20.5 -4t-11.5 -11t-8 -20.5t-5 -17.5q-10 -43 -25 -72q-39 -76 -84 -98.5t-127 -3.5q-29 6 -35 18q-39 70 -31.5 125t48.5 86q23 20 53.5 28.5t70.5 -3t79 -45.5l45 49q-74 70 -159 71.5t-134 -47.5q-66 -55 -73 -141t42 -158 q29 -51 128 -56t146 30q37 23 76 86q33 -154 139 -154q61 0 121 56.5t94 134.5q55 117 33 239.5t-127 198.5q-154 111 -296 159t-274 22t-230 -134q-166 -186 -166 -495.5z" />
<glyph unicode="A" horiz-adv-x="645" d="M27 0q14 47 77 395q70 393 107 561q12 55 23.5 98.5t30 96.5t39.5 83q20 28 43 28h3q43 0 66 -68q29 -102 61 -422l37 -299q6 0 14.5 -1t10.5 -1v-68l-17 3q45 -375 58 -578l-68 -4q-12 213 -57 588q-191 23 -264 22h-11l-8 -49q-68 -367 -82 -405zM193 500h11 q65 0 242 -19l-34 283q-2 20 -16.5 144t-26.5 199q-12 73 -20 73q-20 0 -79 -269q-46 -218 -77 -411z" />
<glyph unicode="B" horiz-adv-x="868" d="M37 76l55 35q16 -27 47 -48q-7 72 -7 191q0 162 13 410q13 221 14 382q0 135 -9 228l65 6q2 -8 2 -23.5t2 -23.5q31 2 59 2q162 0 216 -72q18 -27 22 -60q1 -8 1 -17q0 -27 -10 -59q-13 -42 -25.5 -71.5t-37.5 -83.5q-62 -137 -62 -188q0 -14 7 -27q14 -29 98 -59.5 t174.5 -72.5t114.5 -97q17 -36 17 -75q0 -57 -36 -120q-60 -104 -182 -176q-164 -88 -309 -88q-157 1 -229 107zM209 37q32 -5 64 -6q128 0 270 84q98 57 150 137q34 52 34 100q0 26 -10 51q-23 49 -107 82t-170 65t-110 79q-8 39 -13 60q-1 5 0 11q0 21 11 55 q14 44 25.5 69.5t33.5 74.5q64 141 64 189q0 26 -11 38q-31 45 -164 45q-26 0 -55 -2q3 -47 3 -113q0 -150 -13 -397q-13 -216 -13 -375q0 -147 11 -247z" />
<glyph unicode="C" horiz-adv-x="618" d="M39 655q-8 -82 -8 -154q0 -282 114 -425q78 -107 203 -107q98 0 225 66l-34 59q-104 -57 -185 -57q-95 0 -155 80q-59 76 -83 217q-14 83 -14 178q0 66 7 137q14 162 61 298t109 202q21 28 50 28h10q36 -5 67.5 -24.5t74.5 -52.5q14 -12 23 -19l39 56q-82 70 -141 94 q-41 17 -72 17q-13 0 -24 -3q-38 -10 -77 -49q-76 -82 -126 -234.5t-64 -306.5z" />
<glyph unicode="D" horiz-adv-x="657" d="M33 1253q48 7 92 8q166 0 281 -104q135 -117 172 -328q12 -68 11 -137q0 -129 -39 -264q-60 -209 -216 -338q-115 -96 -275 -121l-12 64l25 6q-24 476 -24 801q0 205 9 350q-2 0 -7 -1t-7 -1zM112 672q3 -133 6 -220t10 -221.5t9 -171.5q145 53 241.5 180.5t128.5 277.5 q17 82 17 164q0 68 -12 136q-27 158 -126 266.5t-263 110.5q-8 -127 -11 -258q-2 -66 -2 -131.5t2 -132.5z" />
<glyph unicode="E" horiz-adv-x="651" d="M33 -25v66q31 0 80 4q0 109 4 317q0 27 1 82.5t1 83.5q-4 0 -14.5 -2t-14.5 -2l-6 68q6 0 17.5 1t17.5 3q1 56 0 109q0 266 -17 454q-41 4 -61 8l12 66q52 -8 125 -8q58 0 129 5q77 5 139 5q67 0 115 -6l-8 -68q-16 9 -86 9q-45 0 -111 -4q-170 -9 -186 -9 q15 -186 15 -439q0 -56 -1 -116q135 12 205 12v-67q-102 0 -205 -12q0 -29 -1 -87.5t-1 -87.5q-4 -201 -4 -307q10 2 70.5 11.5t81 11.5t69.5 5q21 1 41 1q27 0 52 -2q43 -4 90 -14l-15 -66q-96 14 -155 14q-16 0 -30 -1q-62 -5 -169.5 -21.5t-179.5 -16.5z" />
<glyph unicode="F" horiz-adv-x="552" d="M33 1167v62q252 0 588 24v-63q-315 -20 -488 -23q-9 -99 -9 -285q0 -106 3 -241q31 2 104.5 3t102.5 3l4 -63q-12 0 -92 -3t-117 -6q4 -114 4 -211q0 -229 -20 -372l-62 8q20 140 20 361q0 118 -5 260q-3 139 -3 249q0 193 9 297h-39z" />
<glyph unicode="G" horiz-adv-x="722" d="M39 788q-8 -116 -8 -219q0 -179 24 -321q49 -279 217 -279q74 0 162 64q111 82 184 222q40 77 41 136q0 50 -28 88q-37 45 -122 47q-7 0 -14 1q-79 0 -167 -21l18 -64q95 18 153 19q63 0 81 -23q15 -20 14 -48q0 -50 -45 -125q-72 -118 -154 -179q-70 -51 -123 -51 q-11 0 -20 2q-100 20 -131 221q-25 137 -25 312q0 101 8 214q10 172 42 281t77 127q9 4 19 4q59 0 159 -135l52 39q-72 100 -131 135q-41 26 -82 26q-22 0 -43 -8q-140 -64 -158 -465z" />
<glyph unicode="H" horiz-adv-x="696" d="M33 0q0 141 4 416q3 220 3 397q0 265 -7 430l67 4q9 -172 10 -421q0 -83 -1 -175q139 -2 309 -35q12 -2 34.5 -6t34.5 -6q0 391 -34 625l67 8q37 -256 37 -643q61 -8 94 -10l-6 -70q-14 2 -44 5t-44 5q-4 -309 -16 -534l-68 4q14 330 14 541q-29 6 -81 14 q-162 33 -297 35q0 -29 -1.5 -84.5t-3.5 -83.5q-4 -274 -4 -416h-67z" />
<glyph unicode="I" horiz-adv-x="610" d="M33 -27v64q57 0 233 18q0 4 -12 285q-8 183 -8 335q0 293 30 478h-38q-68 0 -187 10l6 66q76 -8 151 -9q25 0 46 -1q43 0 71 2q42 2 115.5 7t102.5 7v-66q-31 -2 -100.5 -6t-98.5 -6q-33 -182 -36 -406q-1 -45 0 -89q0 -173 9 -320q12 -272 13 -281q53 5 100 5 q36 0 70 -3l-4 -63q-34 3 -70 3q-47 0 -96 -5v-27h-64v19q-186 -17 -233 -17z" />
<glyph unicode="J" horiz-adv-x="735" d="M41 391h65q0 -98 46 -227q47 -121 88 -129h2q39 0 80 123q45 125 59 267q11 105 10 183q0 28 -1 52q-5 93 -23 262q-16 147 -21 237q-156 12 -254 12v66q70 0 185.5 -8t183.5 -10q10 0 21 -1q67 0 186 11l10 -66q-84 -10 -178 -10q-59 0 -88 2q4 -43 11 -118.5t9 -108.5 q18 -174 24 -270q1 -25 1 -53q0 -80 -11 -189q-14 -147 -59 -279q-59 -168 -145 -168t-152 172q-49 127 -49 250z" />
<glyph unicode="K" horiz-adv-x="747" d="M92 475q-2 8 -2 17q0 22 10 51q-3 126 -2 240q0 257 13 456h69q-13 -234 -13 -466q0 -58 1 -116q8 14 29 43q168 248 321 529l60 -31q-145 -268 -324 -534q-72 -111 -84 -138v-53q10 -10 88 -63q242 -156 469 -371l-47 -49q-227 215 -457 360q-8 6 -25.5 16.5t-25.5 16.5 q4 -176 16 -410l-69 -4q-12 270 -17 480q-6 8 -10 26z" />
<glyph unicode="L" horiz-adv-x="530" d="M68 50q2 -81 47 -81q29 0 135 31q154 51 223 51l12 68q-4 1 -10 0q-53 0 -242 -51q-82 -23 -95 -23h-3q-1 1 -1 11q0 20 3 73q8 127 21 238q45 557 51 862h-68q-8 -406 -53 -854q-21 -223 -21 -310q1 -8 1 -15z" />
<glyph unicode="M" horiz-adv-x="903" d="M45 0l70 -14q43 217 43 516q0 125 -4 283.5t-8 212.5q-1 23 -1 42q0 25 2 41q4 0 60 -182q20 -74 32.5 -109.5t38 -92t58.5 -92.5t78 -58q12 -6 24 -6q40 0 77 68q48 89 130 323q6 18 10 29.5t11.5 34t12.5 38t11 34.5t11 32l11 24q5 12 8 17.5t5 3.5q4 -4 4 -109 q0 -96 -1 -291.5t-1 -289.5q-4 -381 -4 -580h72q0 199 4 580q0 94 1 288.5t1 293t-6 147.5q-14 70 -50 78q-4 1 -7 0q-26 0 -44 -24q-20 -28 -43 -83q-23 -53 -73 -203q-16 -39 -45 -121.5t-51.5 -134t-45.5 -80.5q-61 35 -94 107t-66 197q-18 63 -34.5 109t-39 97.5t-49 75 t-53.5 17.5q-10 -6 -16 -16.5t-8 -28t-2 -31t1 -37t1 -31.5q10 -158 10 -573q0 -293 -41 -502z" />
<glyph unicode="N" horiz-adv-x="872" d="M33 1049q2 -29 14 -212.5t16 -248.5q4 -356 21 -588l68 4q-16 227 -21 586q-2 100 -15.5 257t-15.5 206q-1 31 -1 54q0 70 10 71q10 0 51 -60q35 -59 78 -143t67.5 -135.5t79.5 -175t70 -154.5q184 -412 243 -506q16 -27 41 -27q16 0 31.5 16.5t17.5 41.5q16 68 17 303 q-2 252 -14 590q-8 258 -9 301h-69q0 -45 8 -303q14 -403 16 -557q0 -274 -12 -275q-10 0 -209 443q-207 485 -315 643q-55 75 -98 74q-5 0 -11 -1q-41 -10 -53 -69q-7 -39 -7 -102q1 -16 1 -33z" />
<glyph unicode="O" horiz-adv-x="790" d="M33 410q6 -178 59 -291q70 -150 219 -150q72 0 152 39q137 59 199 215q49 115 48 264q0 27 -1 54q-6 227 -109 432q-53 104 -115 168q-51 55 -118 88l-17 28q-90 -47 -167 -182t-115 -325q-35 -152 -36 -308q1 -16 1 -32zM103 402q-1 18 0 37q0 140 34 294 q39 178 101 293q43 84 100 137q113 -57 199 -221q94 -188 100 -403q1 -18 1 -36q0 -36 -3 -73q-4 -55 -21.5 -129t-64.5 -136.5t-117 -92.5q-67 -31 -120 -31q-101 0 -156 109q-48 95 -53 252z" />
<glyph unicode="P" horiz-adv-x="591" d="M33 1229q66 12 125 12q91 0 166 -29q111 -41 161 -139q40 -73 40 -158q0 -30 -5 -61q-18 -117 -94 -199q-81 -89 -186 -89q-49 0 -105 20q2 -23 5 -69t5 -68q20 -299 21 -449h-66q0 152 -20 442q-19 284 -19 481q0 147 11 244q-8 0 -29 -4zM131 657q54 -24 103 -23 q81 0 145 66q61 68 76 166q4 25 3 50q0 69 -30 126q-71 132 -261 132h-28q-16 -126 -15 -284q-1 -109 7 -233z" />
<glyph unicode="Q" horiz-adv-x="860" d="M41 575q-9 83 -9 158q0 235 93 381q57 84 137 115q47 18 99 18q48 0 100 -16l-6 -19q86 -27 157 -106q88 -106 123 -281q22 -110 22 -221q0 -139 -34 -278q-18 -70 -45 -125q66 -72 98 -121q4 -6 26.5 -38t24.5 -34l-51 -39q-31 51 -53 74q-25 35 -78 98 q-66 -113 -164 -153q-43 -18 -80 -19q-27 0 -63 11q-61 20 -117 86q-143 169 -180 509zM104 584q33 -324 164 -478q64 -74 131 -73q28 0 56 12q86 37 145 148q-78 84 -154 141l37 51q68 -49 146 -131q20 45 30 90q35 129 36 259q0 104 -23 208q-10 51 -27.5 101.5 t-52.5 112.5t-94.5 100t-135.5 38v21h-2q-111 0 -182 -105q-81 -128 -81 -350q-1 -68 7 -145z" />
<glyph unicode="R" horiz-adv-x="653" d="M45 0q0 168 10 408q9 254 10 443q0 227 -14 361l68 9v-2q43 23 90 32q39 8 75 9q54 0 100 -19q77 -31 110 -121q15 -42 14 -84q0 -38 -12 -75q-27 -78 -97 -136q-84 -80 -217 -143q23 -57 150 -207q76 -92 120 -149.5t93 -147.5t63 -166l-65 -12q-14 68 -61.5 152 t-87.5 135t-115 145q-117 145 -148 203q0 -37 -4 -115t-4 -114q-10 -240 -10 -406h-68zM125 1145q9 -115 9 -289q0 -58 -1 -123l17 8q294 148 293 297q0 29 -11 58q-33 86 -124 98q-15 2 -30 2q-76 0 -153 -51z" />
<glyph unicode="S" horiz-adv-x="698" d="M37 729q18 -131 108 -168q24 -8 73 -8q45 0 112 7q40 5 71 5q74 0 95 -26q55 -45 67 -177q2 -16 2 -32q0 -100 -66 -182q-77 -95 -175 -109q-14 -2 -28 -2q-54 0 -94 33q-50 41 -65 127l-65 -13q23 -115 90 -169q55 -44 135 -44q18 0 37 2q131 20 219 139q77 103 77 224 q0 17 -1 35q-18 160 -92 221q-47 37 -122 39h-21q-62 0 -110 -10q-24 -5 -49 -6q-33 0 -67 10q-51 18 -66 112q-5 30 -4 62q0 101 49 215q61 147 146 176q12 4 23 4q55 0 104 -90l59 31q-69 126 -158 125q-24 0 -49 -9q-111 -35 -184 -211q-56 -129 -56 -245q0 -34 5 -66z " />
<glyph unicode="T" horiz-adv-x="651" d="M33 1167v68q6 0 276.5 -6t274.5 -6v-66q-72 0 -211 4q0 -199 -13 -563q-10 -492 -10 -598h-67q0 209 12 598q10 311 10 565q-180 4 -272 4z" />
<glyph unicode="U" horiz-adv-x="780" d="M76 469q31 -156 94 -276q49 -98 118.5 -161t145.5 -63q96 0 162 97.5t94 273.5q22 136 22 309q0 217 -34 494l-68 -8q35 -269 36 -470q0 -55 -3 -105q-12 -232 -54 -352t-106 -157q-22 -14 -48 -14q-40 0 -89 35q-141 109 -205 409q-32 143 -31 297q0 215 62 451l-66 16 q-62 -242 -62 -466q0 -159 32 -310z" />
<glyph unicode="V" horiz-adv-x="735" d="M33 1169q70 -123 176 -720q4 -29 13 -85.5t15.5 -94.5t16.5 -88t19.5 -84t21.5 -65.5t27.5 -47t31.5 -15.5h2q59 0 90 209q100 631 222 1051l-66 20q-125 -436 -223 -1059q-20 -121 -24.5 -122.5t-12.5 25t-18.5 82.5t-17.5 93t-19.5 111t-12.5 80q-104 608 -182 745z " />
<glyph unicode="W" horiz-adv-x="1105" d="M33 1229q8 -135 39.5 -304t56.5 -271.5t78 -303.5q8 -29 20.5 -75t21.5 -82.5t11 -40.5q2 -6 10.5 -43t15.5 -65t9 -32q14 -32 41 -32q6 0 12 2q20 2 36.5 27.5t39.5 90.5q20 59 65 207q6 20 24.5 84t31 104t16.5 40q10 0 62 -244q25 -131 47 -209q29 -113 80 -113 q27 0 36 33q6 23 84 379q147 680 168 752l-61 18q-23 -72 -174 -758q-59 -307 -64 -307q-6 0 -53 219q-33 158 -45 197q-29 102 -66 123q-14 4 -32 -2q-23 -12 -44.5 -67.5t-74.5 -229.5q-72 -244 -78 -244t-22 84l-52 201q-156 571 -174 866z" />
<glyph unicode="X" horiz-adv-x="604" d="M33 1174l61 22q94 -256 193 -563q141 395 184 608l66 -12q-51 -252 -220 -697q66 -215 175 -581l-66 -19q-16 53 -45 154.5t-53.5 185.5t-46.5 160q-111 -299 -154 -450l-64 18q51 182 181 516l4 8q2 4 2 8q-106 347 -217 642z" />
<glyph unicode="Y" horiz-adv-x="677" d="M33 1151l57 39q115 -178 207 -359q4 -6 9 -15t9 -17l9 -17l6 -12q2 -4 4 -2t4 8t4 16.5t4 14.5q100 276 207 455l57 -33q-115 -199 -198 -445q-2 -2 -11.5 -30.5t-17.5 -43t-21 -22.5q-1 -30 -1 -66q0 -165 24 -440q2 -29 7 -89t7 -93l-67 -4q-2 29 -7.5 89t-7.5 93 q-24 243 -23 410q0 63 3 114q-8 8 -12 17q-10 14 -47 82q-88 172 -205 350z" />
<glyph unicode="Z" horiz-adv-x="677" d="M35 27l4 10q33 76 47 106q53 113 123 248q10 23 28.5 60.5t34 69.5t27.5 57q-8 2 -23.5 3t-23.5 1l4 67q53 -4 76 -4q68 135 76 150q100 199 114 241q21 52 21 75q0 11 -4 15q-14 27 -226 35q-96 4 -135 8l4 68q43 -4 135 -8q6 0 45 -1t51.5 -2t45.5 -4t47 -7.5 t36.5 -11.5t35 -18t20.5 -26q13 -22 13 -51q0 -31 -15 -71q-29 -77 -131 -273l-57 -115q45 2 106 17l14 -68q-74 -14 -157 -20q-88 -174 -174 -351.5t-82 -177.5q16 0 53 7t90 20.5t74 17.5q199 45 241 45v-67q-29 0 -227 -43q-127 -29 -180 -37q-63 -12 -86 -12 q-25 0 -39 12q-9 8 -9 20q0 7 3 15z" />
<glyph unicode="[" horiz-adv-x="456" d="M35 1285q-4 -126 12 -230q20 -258 22.5 -346t-12.5 -347q-18 -172 -4.5 -315t82.5 -205q57 -51 156 -51q41 0 98 10l-12 68q-137 -27 -197 22q-53 47 -61 180.5t6 286.5q14 246 12 350.5t-22 352.5q-16 133 -13.5 224t35.5 124q45 45 213 25l8 67q-195 27 -268 -43 q-51 -47 -55 -173z" />
<glyph unicode="\" horiz-adv-x="634" d="M-33 1425q72 -141 140.5 -310t101.5 -267t102 -311q143 -455 244 -699l68 29q-104 252 -244 690q-61 199 -99 312.5t-106 280.5t-143 310z" />
<glyph unicode="]" horiz-adv-x="387" d="M35 1434q141 2 174 -31q29 -29 35 -105.5t2 -263.5q-4 -172 -4 -319q0 -174 6 -314q2 -131 3 -228t-12.5 -165.5t-41.5 -97.5q-41 -35 -123 -29l-4 -67q4 0 13 -1t13 -1q96 0 146 51q59 53 71 200q8 98 2 340q-6 137 -6 312q0 147 4 319q2 119 2 199t-13 133t-44 84 q-55 55 -223 51v-67z" />
<glyph unicode="^" horiz-adv-x="798" d="M33 903l63 -53q154 184 236 442q25 63 30 74q18 -23 54 -86q29 -47 157 -299q14 -25 42 -79t44 -83l72 37q-61 119 -84 164q-141 268 -174 323q-37 63 -63.5 89t-57.5 24q-8 0 -16 -3t-15.5 -9t-12.5 -12.5t-11 -17.5t-10 -17t-9.5 -20.5t-7.5 -19.5t-7 -19.5t-7 -18.5 q-88 -256 -223 -416z" />
<glyph unicode="_" horiz-adv-x="614" d="M0 -68q33 0 149.5 1t149.5 1t158 -1t157 -1v-106q-33 0 -158.5 1t-156.5 1t-148.5 -1t-150.5 -1v106z" />
<glyph unicode="`" horiz-adv-x="524" d="M33 1589q45 -59 168 -155q145 -115 178 -174l78 45q-10 18 -25.5 37.5t-28 33t-36 35t-33.5 30.5t-40 32.5t-36 29.5q-115 88 -154 137z" />
<glyph unicode="a" horiz-adv-x="784" d="M47 391q-2 -31 -2 -61q0 -130 37 -232q41 -147 117 -147q8 0 16 2q63 8 123 141q41 72 96 262q6 18 15.5 53t13.5 48q31 -131 100 -287q84 -168 150 -207l39 55q-53 35 -122 179.5t-104 308.5q-14 61 -18 131q35 145 33 166l4 8q2 25 -25 43q-29 10 -39 -16 q-41 -57 -45 -195q-31 -143 -65 -242q-47 -164 -90 -257t-57.5 -106t-22.5 -13q-1 0 -3 -1q-20 0 -48 95q-35 109 -35 221q0 27 2 53q10 139 65 242q70 135 213 176l-16 68q-178 -47 -258 -207q-64 -113 -74 -281z" />
<glyph unicode="b" horiz-adv-x="655" d="M27 106q18 -33 30 -61v-4q4 -16 13 -23q27 -49 65 -49q33 0 92 35q127 76 205 156q76 80 117 166q39 93 39 182q0 68 -23 135q-31 88 -106 148q-59 45 -124 45q-15 0 -30 -2q-102 -18 -164 -138q0 610 -22 748l-62 -10q23 -140 23 -610v-152q-2 -61 -2 -172 q-23 -104 -23 -258v-117zM123 49v4q8 41 8 174q6 117 6 267q18 88 45 153q55 109 131 125q9 1 19 1q48 0 93 -35q54 -42 83 -115q19 -55 19 -112q0 -79 -38 -159q-76 -172 -292 -293q-49 -29 -62 -28z" />
<glyph unicode="c" horiz-adv-x="579" d="M39 313q29 -229 149 -311q47 -33 101 -33q33 0 69 13q94 31 199 151l-57 45q-116 -138 -205 -138q-35 0 -66 21q-96 63 -118 261q-7 56 -8 106q0 132 51 229q54 106 145 106q33 0 70 -13l24 69q-49 17 -93 18q-49 0 -93 -22q-72 -35 -119 -125q-57 -115 -57 -263 q0 -55 8 -114z" />
<glyph unicode="d" horiz-adv-x="600" d="M29 391q10 197 96 316q45 61 121 90q46 17 90 17q28 0 55 -7v33v4q0 57 -4 315l-4 275q2 33 32.5 32.5t35.5 -30.5q0 -23 6 -121q2 -59 2 -350v-297q0 -137 18.5 -290t54.5 -290l-61 -16q-25 90 -47 215q-43 -281 -143 -314q-20 -4 -29 -4q-33 0 -68 23q-45 31 -94 100 q-63 88 -63 245q0 26 2 54zM94 389q-2 -26 -1 -49q0 -137 50 -211q66 -93 108 -93q5 0 9 1q78 27 113 358q16 164 16 340q-27 7 -54 8l-65 -11q-59 -19 -92 -64q-74 -101 -84 -279z" />
<glyph unicode="e" horiz-adv-x="622" d="M28 284q7 -120 60 -210q68 -104 178 -105q135 0 289 160l-47 45q-90 -90 -168 -121q-38 -16 -73 -16q-21 0 -42 6q-63 20 -96 97t-33 145q180 39 293 131q115 92 143 213q8 36 9 66q0 83 -62 124q-34 25 -76 25q-61 0 -139 -53q-135 -94 -196 -259q-41 -112 -41 -217 q0 -15 1 -31zM96 352q8 113 59.5 215.5t145.5 165.5q60 44 103 44q21 0 38 -11q31 -24 31 -72q0 -22 -6 -49q-20 -92 -113.5 -175t-257.5 -118z" />
<glyph unicode="f" horiz-adv-x="514" d="M23 766l4 68h4q37 -2 106 -7q-6 131 -6 265q0 160 59 262q61 98 152 108q11 1 22 1q83 0 144 -70q68 -72 108 -232l-69 -14q-29 133 -90 201q-46 50 -96 49h-11q-59 -6 -105 -86t-46 -219q0 -131 6 -267q115 0 213 23l16 -68q-102 -23 -219 -22h-6q12 -217 70 -740l2 -18 l-66 -8l-4 20q-57 524 -70 748q-18 2 -56 4t-58 2h-4z" />
<glyph unicode="g" horiz-adv-x="628" d="M-18 -465q16 -55 68 -90t118 -35q121 0 215 119q98 129 137 362q13 75 13 180q0 96 -11 218q-8 68 -10 108q4 16 6 27q23 98 37 205q6 50 6 82q0 25 -4 39q-14 27 -37 22q-27 0 -43 -49q-37 -117 -37 -255q0 -31 2 -65q-66 -272 -159 -346q-24 -20 -49 -19l-37 11 q-92 43 -103 173q-2 21 -1 42q0 108 44 209q53 143 148 239q74 74 146 74q20 0 40 -6l18 64q-29 9 -58 9q-93 0 -189 -89q-109 -102 -168 -264q-50 -125 -51 -238q0 -29 4 -57q18 -162 141 -219q33 -17 65 -17q56 0 109 49q63 61 119 201q7 -72 6 -137q0 -97 -14 -178 q-23 -133 -62 -225.5t-83 -131.5t-73.5 -52t-56.5 -15h-8q-44 0 -77 20q-36 23 -46 54q-3 12 -3 24q0 53 67 94l-33 58q-105 -62 -105 -145q0 -24 9 -50z" />
<glyph unicode="h" horiz-adv-x="772" d="M68 1434q41 -211 55 -723q0 -27 2 -77t2 -75q-6 -12 -14.5 -35.5t-10.5 -29.5q-4 -20 -11 -87t-11 -122.5t-4 -57.5l-6 -188v-2q6 -47 30 -55q27 -12 47 18q33 47 46 266q4 82 4 281q55 129 149 184q46 27 94 28q27 0 56 -9q23 -8 41 -121q14 -68 31.5 -280t25.5 -263 q6 -47 23.5 -80t29.5 -43t43 -35l37 64q-4 0 -17.5 11t-28.5 40t-19 66q-8 55 -24.5 258.5t-29.5 271.5q-25 156 -96 180q-35 10 -70 10q-68 0 -131 -38q-68 -37 -116 -107v31q-20 518 -58 731z" />
<glyph unicode="i" horiz-adv-x="333" d="M70 377q6 -369 94 -400q12 -6 26 -6q35 0 76 43l-55 47q-4 -4 -8 -7t-7 -5t-3 -4q-43 51 -52 344q-1 46 -1 94q0 165 12 338h-76q-8 -169 -8 -310q0 -71 2 -134zM74 1112q2 -10 3 -27.5t2 -26.5t3 -22.5t5 -20.5t8 -14.5t11 -9.5q3 -1 7 -1t8 1q10 2 18 8.5t14.5 19.5 t9.5 23.5t6 26.5t5 25l-27 4q0 16 -2 24z" />
<glyph unicode="j" horiz-adv-x="380" d="M-121 -444q-14 -41 -14 -73q0 -49 35 -77q16 -14 45 -14q41 0 78 28q74 47 129 152q70 115 104 283q36 158 36 358q0 30 -1 61q-16 281 -92 564l-70 -19q89 -341 89 -625q0 -165 -30 -311q-31 -150 -85 -252t-111 -145q-31 -23 -49 -23q-6 6 -7 21q0 18 11 49zM74 1085 l32 -73q9 -18 29 -19q7 0 15 2q27 0 26 35q-4 37 -12 78l-19 -4q-4 8 -4 10l-49 -16l2 -4z" />
<glyph unicode="k" horiz-adv-x="692" d="M45 1434l74 4q4 -88 13 -212t13 -192q18 -272 29 -438q20 20 133 94q80 51 133 90q57 47 70 70l68 -29q-14 -37 -66.5 -76.5t-165.5 -115.5q-14 -10 -45 -30.5t-51.5 -36t-22.5 -17.5q68 -37 132.5 -115t96 -134t81.5 -153q72 -133 88 -149q10 -10 22 -10l-22 -64 q-39 0 -71 43t-83 148q-49 96 -79 148t-91 126t-123 102q4 -105 4 -201q0 -155 -10 -290l-72 4q7 116 7 257q0 320 -35 771q-4 70 -13.5 195t-13.5 211z" />
<glyph unicode="l" horiz-adv-x="393" d="M0 1378l55 -37q10 14 47 52q27 -23 37 -230q0 -20 1 -51q0 -125 -7 -428q-8 -212 -8 -356q0 -192 14 -262q10 -47 28 -72q16 -23 45 -23h5q47 2 109 109l-58 33q-29 -51 -51 -74q-12 25 -16 57q-10 72 -10 232q0 142 8 354q9 358 8 465v33q-8 256 -84 278q-8 3 -17 3 q-47 0 -106 -83z" />
<glyph unicode="m" horiz-adv-x="1120" d="M33 743l41 -51q52 39 76 40q6 0 10 -3q25 -6 30 -82q4 -31 5 -147v-2l-2 -17v-30q-70 -229 -70 -373q0 -100 51 -109q29 0 38 20.5t15 88.5q20 127 31 362q53 174 113 273q41 59 59 59q18 -2 39 -63q16 -59 16 -238l-12 -197q-2 -31 27 -38q27 -4 37 28l12 47 q10 49 25.5 112.5t27.5 98.5q63 190 146 242q27 18 54 18l15 -2q6 -2 19 -96q2 -10 22 -211q16 -184 41 -326q8 -57 14.5 -86.5t24.5 -63.5t45 -36q33 0 53.5 25.5t38.5 85.5l-63 22q-20 -57 -27 -55q-10 41 -27 141q-10 68 -29.5 270.5t-29.5 260.5q-16 121 -55 133 q-20 5 -41 4q-50 0 -94 -29q-92 -61 -160 -246q-8 180 -60 238q-27 29 -61 29h-8q-57 -8 -117 -111q-27 -47 -43 -92q-10 123 -70 151q-17 8 -37 9q-51 -1 -120 -54z" />
<glyph unicode="n" horiz-adv-x="655" d="M33 776q46 -46 46 -284q0 -37 -1 -78q0 -12 -1 -40t-3 -40q-23 -121 -23 -148q-4 -37 -10 -127q-2 -12 -2 -30v-9q2 -29 27 -32q29 -4 36 24q16 41 35 314q12 72 17 92q33 154 122 266q78 95 133 95q5 0 11 -1q33 -6 51 -57q17 -51 17 -137q0 -36 -3 -78q0 -16 -2 -29 q-14 -207 -14 -272q0 -94 8 -142q12 -76 49 -92l25 60l2 -2q-21 21 -21 161v27q0 61 15 256q0 6 1 15.5t1 11.5q4 44 3 83q0 97 -22 158q-29 88 -100 103h-12q-49 0 -94 -31q-47 -29 -95 -88q-51 -59 -88 -143q-10 180 -57 235z" />
<glyph unicode="o" d="M41 428q-9 -87 -9 -158q0 -194 66 -262q33 -33 78 -33q55 0 113 45q100 72 136 233q21 92 21 185q0 69 -12 140q-39 227 -162 266q-18 5 -36 4q-30 0 -60 -12q-49 -18 -98 -74l28 -25q-45 -135 -65 -309zM109 420q29 256 84 350q23 13 43 13q9 0 18 -3q84 -23 115 -213 q11 -67 11 -133q0 -78 -15 -155q-31 -143 -113 -207q-45 -31 -75 -32q-19 0 -32 13q-46 51 -45 209q0 69 9 158z" />
<glyph unicode="p" horiz-adv-x="616" d="M68 702q23 -104 26 -927v-289q-2 -27 -1 -53.5t4 -48t13 -34.5q8 -12 21 -12h4q10 0 18.5 6.5t11.5 18.5t5 23.5t4 31t4 29.5q4 57 6 188.5t2 235.5v106q16 -2 45 11q88 43 185 192q96 152 106 271q4 58 4 107q0 116 -20 190q-29 106 -103 114q-53 0 -96 -43 q-45 -43 -82 -108q-51 -90 -75 -195q-6 137 -19 201zM184 43q4 311 6 328q16 172 91 307q33 59 65 89q31 28 51 28h2q27 0 45 -66q15 -61 15 -158q0 -53 -4 -116q-6 -104 -97 -240q-84 -133 -155 -168q-8 -5 -14 -5q-3 0 -5 1z" />
<glyph unicode="q" horiz-adv-x="557" d="M27 197q4 -104 20 -152q20 -66 68 -70h3q50 0 107 68q41 51 92 145q6 14 19.5 41t24 48.5t18.5 39.5q-20 -203 -25 -333q-2 -73 -2 -135q0 -123 8 -199q18 -209 68 -289l57 35q-68 114 -67 423q0 75 4 163q10 246 55 593q2 16 7 43t5 33v11v12v11q0 7 -2 12t-5 9.5 t-8 7.5t-13 3q-14 2 -25.5 -6.5t-19.5 -34t-13.5 -46t-14.5 -65.5t-15 -69q-27 -109 -115 -273q-41 -80 -84 -135q-37 -45 -51 -45q-27 12 -29 156v28q0 140 36 303q40 180 122 230q23 14 50 14q37 0 81 -26l35 59q-60 35 -114 34q-45 0 -85 -24q-109 -66 -162 -301 q-31 -147 -31 -287q1 -16 1 -32z" />
<glyph unicode="r" d="M53 291q-7 159 -7 283q0 155 11 253l72 -8q-6 -41 -8 -92q39 43 92 57q27 7 53 7q70 0 125 -50q31 -27 53.5 -81t22.5 -105h-66q-6 86 -43 125q-34 36 -82 36q-23 0 -49 -7q-43 -6 -76.5 -45t-33.5 -101q2 -47 5 -136t3 -132q10 -125 10 -295h-72q0 127 -10 291z" />
<glyph unicode="s" horiz-adv-x="514" d="M29 616q-2 -14 -2 -26q0 -63 49 -111q35 -33 121 -78q43 -20 69.5 -35.5t56 -41t43.5 -58.5q12 -28 11 -63v-10q-6 -113 -68 -142q-24 -13 -49 -13q-37 0 -80 28q-55 35 -53 86h-68q-4 -90 84 -146q57 -35 119 -35q41 0 82 19q92 47 102 198q0 6 1 13q0 50 -15 89 q-16 44 -57 78.5t-66.5 51t-79.5 45.5q-78 39 -108 67q-26 24 -26 58q0 7 1 14q12 80 49 125q35 47 70 53l16 2q59 0 115 -82l55 35q-72 114 -162 114q-20 0 -40 -5q-59 -12 -111 -76q-41 -62 -59 -154z" />
<glyph unicode="t" horiz-adv-x="413" d="M0 766h45q18 0 51 1t49 1q0 -6 -1 -20.5t-1 -22.5q-1 -73 0 -138q0 -278 14 -419q17 -174 70 -193l37 48q-47 55 -53 192q-2 39 -2 128q0 134 4 380v49q8 2 23 2l110 6v68l-117 -6q-10 0 -14 -2q1 73 1 139q0 376 -40 487l-59 -32q23 -41 30 -230q2 -85 2.5 -177 t-2.5 -191q-66 -3 -109 -3q-22 0 -38 1v-68z" />
<glyph unicode="u" horiz-adv-x="735" d="M76 713q-6 -130 -6 -229q0 -127 10 -203q14 -121 59 -197q37 -61 96.5 -85t178.5 -24q55 0 90 33q43 45 57 135q20 -70 45 -120l64 28q-55 106 -76 342q0 68 -21.5 237t-50.5 175q-23 8 -36 -8.5t-15 -57.5q-1 -20 -1 -42t1 -46q2 -47 10 -121q21 -202 21 -298 q0 -34 -2 -56q-14 -131 -99 -131h-6q-127 6 -178 63.5t-67 180.5q-10 78 -11 202q0 96 6 220q4 86 5 108h-70q0 -20 -4 -106z" />
<glyph unicode="v" horiz-adv-x="663" d="M23 819q59 -176 104 -347t72.5 -299t33.5 -146q12 -53 48 -54h2q27 0 49 52q104 393 264 788l-66 27q-139 -350 -237 -701l-8 -24q0 2 -1 7t-1 9q-88 397 -195 711z" />
<glyph unicode="w" horiz-adv-x="946" d="M0 831l8 -28q8 -31 20.5 -70t20.5 -65q14 -39 74 -209q49 -129 84 -244q23 -82 63 -82q12 0 22.5 8.5t17.5 24.5t11.5 30.5t9.5 34t7 27.5q16 78 31 119q19 55 35 54q9 0 18 -15q10 -16 49 -131q47 -145 78 -209q33 -61 62 -88q19 -17 44 -18q13 0 27 5q23 6 40 31 t39.5 102.5t41.5 210.5q33 219 47 447q2 14 4 32.5t2 22.5l-65 6q0 -4 -1.5 -12t-2.5 -21.5t-1 -23.5q-25 -283 -45 -428q-16 -123 -41 -211q-18 -74 -36 -92h-3q-20 0 -53 67q-31 66 -76 199q-51 160 -81 180q-23 14 -45 14l-29 -5q-66 -27 -111 -250q-25 82 -82 237 q-8 25 -26.5 75t-29.5 85t-15 49q-10 29 -50 158z" />
<glyph unicode="x" horiz-adv-x="581" d="M45 0q47 209 164 446q-92 225 -133 359l71 22q27 -84 107 -295q72 133 195 326l65 -39q-141 -217 -225 -381q2 -2 4 -7t2 -7q109 -268 158 -424l-70 -23q-47 141 -135 377q-88 -184 -131 -370z" />
<glyph unicode="y" horiz-adv-x="567" d="M51 862q-21 -95 -21 -202q0 -143 38 -310q61 -279 161 -358q31 -23 59 -23q17 0 34 8q57 27 88 162q2 -59 1 -105q0 -70 -3 -112q-12 -147 -101 -287q-76 -117 -145 -143q-8 -4 -21 -4q-7 7 -6 26q0 28 15 80l-64 19q-16 -56 -16 -96q0 -53 28 -78q21 -16 48 -16 q19 0 40 8q88 35 180.5 176t106.5 309q4 49 4 133q0 118 -8 305l-4 86q-2 43 -5 78t-3 45q-6 96 -23 115q-14 18 -32.5 10t-18.5 -43q0 -301 -31 -463q-12 -63 -26.5 -100t-27.5 -42t-28 3q-33 25 -71.5 110t-65.5 209q-36 163 -36 302q0 97 18 184z" />
<glyph unicode="z" horiz-adv-x="864" d="M43 31q-11 17 -11 36q0 28 23 62q25 41 205 225q-8 -2 -23.5 -2t-23.5 -2l-6 68q23 2 63.5 5t63.5 5q80 80 194 203q78 84 107 131q-45 15 -117 15q-33 0 -72 -3q-92 -8 -280 -41q-16 -2 -54 -9t-53 -9l-8 65q12 2 47 9.5t56 11.5q141 25 226 36q62 8 128 8q24 0 48 -1 q91 -4 134 -37q17 -10 17 -36q0 -48 -121 -175q-86 -94 -150 -158h8q29 4 82 8l6 -67q-53 -4 -81 -6q-14 -2 -43 -5t-43 -6l-17 -16q-207 -207 -237 -252q-10 -18 -11 -28q22 -22 122 -22q23 0 50 1q68 2 322 33q147 25 205 24v-67q-25 0 -197 -21q-203 -33 -326 -37h-29 h-37q-13 0 -38 1.5t-40 5.5t-34.5 9t-33 15.5t-21.5 22.5z" />
<glyph unicode="{" horiz-adv-x="452" d="M33 657q-2 -41 49 -69q39 -27 115 -56q18 -4 20 -69q0 -45 -16 -184q-23 -117 -19 -237t58 -167q39 -35 94 -35q25 0 49 6l-14 66q-55 -12 -84 12q-25 23 -31 87.5t-2 115.5t16 143q16 143 17 193q-4 111 -62 133q-23 10 -57 22q-59 23 -60 33q0 8 103 37q51 14 51 115 q0 59 -14 178q-18 113 -17.5 255t47.5 183q33 29 93 15l16 65q-96 23 -154 -29q-35 -31 -53 -82t-18 -131.5t4 -132t14 -151.5q12 -111 15 -152q2 -59 -7 -67q-72 -23 -98 -35q-53 -23 -55 -62z" />
<glyph unicode="|" horiz-adv-x="610" d="M238 1434q41 -403 28 -1262q-4 -307 -4 -442h68q0 135 4 442q12 860 -29 1268z" />
<glyph unicode="}" horiz-adv-x="450" d="M33 -170q49 -25 90 -25q35 0 57 17q53 37 61.5 159.5t-10.5 305.5q-6 72 -14 231q-2 29 13.5 40t62.5 20q4 0 20 4l21 5q4 1 15 5t14.5 8t9.5 11t8 15.5t2 20.5q0 10 -4 18.5t-13 14.5l-16 10q-6 4 -17 9.5t-14 7.5q-96 53 -98 84q-2 61 17 208q20 174 18 258 q0 147 -61 205q-49 49 -136 39l11 -67q53 6 77 -19q41 -41 41 -158q2 -82 -18 -249q-18 -154 -16 -222q2 -39 42 -70.5t78.5 -49t38.5 -21.5q0 -6 -22.5 -11t-53 -10.5t-40.5 -11.5q-49 -31 -47 -98q8 -160 14 -231q12 -236 10 -283q-2 -100 -33 -123q-25 -16 -80 14z" />
<glyph unicode="~" horiz-adv-x="970" d="M33 676l61 -74q166 133 256 119q27 -2 53.5 -22.5t39 -36t38.5 -54.5q84 -109 168 -108q55 0 125 47t129 135l-80 55q-39 -57 -82 -92t-61 -41t-31 -6q-14 0 -42.5 22.5t-45.5 45.5q-31 43 -50 66.5t-60 52t-89 34.5q-141 19 -329 -143z" />
<glyph unicode="&#xa0;" />
<glyph unicode="&#xa1;" horiz-adv-x="354" d="M35 -260q-14 -276 55 -338q35 -31 84 -16l-18 65q-10 -4 -21 2q-47 39 -33 283q6 127 50 463q29 207 28 262h-67q0 -45 -27 -254q-41 -285 -51 -467zM70 780q2 -4 5 -14t6 -21.5t5 -21.5l41 12l2 -2q14 -14 30.5 -17t25 0t12.5 7q33 18 18 57l-2 2q0 4 -2 8.5t-2 8.5 l-25 49l-20 -8q-20 14 -45 14q-12 0 -23 -6q-30 -23 -26 -68z" />
<glyph unicode="&#xa9;" horiz-adv-x="1310" d="M42 460q48 -261 316 -411q291 -152 557 17q156 100 247 284.5t79 374.5q-12 158 -96 280.5t-230 192.5l-30 -63q266 -127 284 -416q12 -170 -69.5 -336t-222.5 -258q-225 -150 -484 -14q-106 57 -173.5 137t-91.5 166t-19.5 170t32.5 164q74 213 266.5 343t436.5 83 l12 69q-203 37 -377 -39t-293 -225q-192 -258 -144 -519zM416 508q20 -109 68 -169t114 -60q115 0 223 198l-61 33q-111 -193 -189 -156q-63 33 -86 166q-27 145 21 252q66 152 235 86l23 66q-109 43 -195 9t-127 -134q-55 -129 -26 -291z" />
<glyph unicode="&#xaa;" horiz-adv-x="784" d="M47 391q-2 -31 -2 -61q0 -130 37 -232q41 -147 117 -147q8 0 16 2q63 8 123 141q41 72 96 262q6 18 15.5 53t13.5 48q31 -131 100 -287q84 -168 150 -207l39 55q-53 35 -122 179.5t-104 308.5q-14 61 -18 131q35 145 33 166l4 8q2 25 -25 43q-29 10 -39 -16 q-41 -57 -45 -195q-31 -143 -65 -242q-47 -164 -90 -257t-57.5 -106t-22.5 -13q-1 0 -3 -1q-20 0 -48 95q-35 109 -35 221q0 27 2 53q10 139 65 242q70 135 213 176l-16 68q-178 -47 -258 -207q-64 -113 -74 -281z" />
<glyph unicode="&#xab;" horiz-adv-x="946" d="M68 483q0 -109 335 -366l52 67q-111 84 -207 175.5t-94 121.5q0 33 127 123q123 92 188 152l-55 63q-78 -70 -185 -145q-61 -47 -86.5 -68.5t-50 -55.5t-24.5 -67zM477 483q0 -109 336 -366l51 67q-111 84 -207 175.5t-94 121.5q0 33 127 123q123 92 189 152l-56 63 q-78 -70 -184 -145q-61 -47 -87 -68.5t-50.5 -55.5t-24.5 -67z" />
<glyph unicode="&#xad;" horiz-adv-x="614" d="M33 592q61 -4 146 -6t148.5 -2t135.5 1t84 1v80q-422 0 -508 6z" />
<glyph unicode="&#xb2;" horiz-adv-x="882" d="M111 145q-23 -57 8 -110t86 -53q100 0 266 225q43 -31 98 -74q137 -111 199 -121l12 64q-39 8 -170 108q-57 47 -104 78q37 61 76 236.5t28 314.5q-10 141 -71 268q-72 147 -170 172q-135 31 -258 -166l57 -34q94 158 184 137q70 -18 126.5 -136t66.5 -245 q10 -129 -28 -295t-66 -217q-72 35 -121 20q-55 -16 -125.5 -64.5t-93.5 -107.5zM172 121q16 43 73.5 81t104.5 52l12 2q18 0 54 -14q-133 -184 -207 -195q-23 -4 -36 21.5t-1 52.5z" />
<glyph unicode="&#xb3;" horiz-adv-x="765" d="M102 68q39 -57 113 -76t141 -8q86 10 164 61t109 137q29 78 33 143.5t-7.5 105.5t-42 77t-52 51t-56.5 37q-51 31 -51 41q0 16 45 55q104 88 110 215q6 115 -63 213q-80 104 -197 129t-231 -45l35 -57q109 57 195.5 33.5t141.5 -101.5q35 -47 48.5 -104t-6 -120.5 t-76.5 -111.5q-76 -61 -70 -110q2 -45 82 -92q86 -59 108 -103q45 -76 -8 -231q-27 -68 -88 -108t-131 -50q-135 -16 -192 57z" />
<glyph unicode="&#xb7;" horiz-adv-x="368" d="M68 485q0 -14 6 -22v-4v-23q4 -25 28 -30h4q2 -2 5 -3q16 0 32 17q8 0 15 2q8 -2 22 -2q20 0 33 6q14 4 29 23l6 12l4 4q2 2 2 4q16 23 10 51v8l-2 4v7q-6 27 -29 36q-16 18 -40 35q-8 10 -19 17q-18 12 -41 -4l-16 -17l-4 -8q-10 -8 -23 -33l-6 -12q-2 -2 -8 -14 q-8 -10 -8 -29q-2 -8 2 -16q-2 -3 -2 -9z" />
<glyph unicode="&#xb9;" horiz-adv-x="673" d="M68 -25l6 64q74 -6 196 12q2 14 7.5 74.5t9.5 101.5q33 301 57 602q16 223 16 355q-31 -14 -176 -101l-22 -14l-29 57l213 125q33 16 53 4q8 -6 14.5 -23.5t8.5 -49t2 -59t-2 -72.5t-3 -70t-5 -71t-4 -58l-58 -631q-2 -29 -8 -82t-8 -76q158 35 235 39v-63 q-27 -2 -67.5 -8t-72.5 -12.5t-64.5 -13.5t-36.5 -7q0 -6 -1 -14.5t-1 -10.5l-64 4v9q-112 -21 -196 -11z" />
<glyph unicode="&#xba;" d="M41 428q-9 -87 -9 -158q0 -194 66 -262q33 -33 78 -33q55 0 113 45q100 72 136 233q21 92 21 185q0 69 -12 140q-39 227 -162 266q-18 5 -36 4q-30 0 -60 -12q-49 -18 -98 -74l28 -25q-45 -135 -65 -309zM109 420q29 256 84 350q23 13 43 13q9 0 18 -3q84 -23 115 -213 q11 -67 11 -133q0 -78 -15 -155q-31 -143 -113 -207q-45 -31 -75 -32q-19 0 -32 13q-46 51 -45 209q0 69 9 158z" />
<glyph unicode="&#xbb;" horiz-adv-x="946" d="M68 180l55 -63q78 70 184 145q61 47 87 68.5t50.5 55.5t24.5 67q0 109 -336 366l-51 -67q111 -84 207 -175.5t94 -121.5q0 -33 -127 -123q-122 -93 -188 -152zM477 180l55 -63q78 70 185 145q61 47 86.5 68.5t50.5 55.5t25 67q0 109 -336 366l-51 -67q111 -84 207 -175.5 t94 -121.5q0 -33 -127 -123q-123 -93 -189 -152z" />
<glyph unicode="&#xbf;" horiz-adv-x="1228" d="M182 -14q-33 -76 2 -195q43 -141 109 -207q68 -66 151 -51q113 18 185 166q74 131 63 301l-74 -6q12 -137 -53 -262q-61 -117 -133 -129q-43 -6 -88 32q-51 51 -92 179q-14 49 -16.5 81.5t13 61.5t30 44t49.5 46q117 98 161 186q80 168 78 422h-69q0 -131 -17.5 -227 t-55.5 -159.5t-65.5 -93.5t-76.5 -73q-83 -77 -101 -116zM444 948l15 -57l41 10l2 -2q14 -14 30.5 -18t24.5 -1t12 7q31 18 21 57v2l-4 8q-2 4 -2 9q-2 6 -10.5 22t-12.5 27l-20 -6q-20 14 -45 14q-12 2 -23 -4q-33 -25 -29 -68z" />
<glyph unicode="&#xc0;" horiz-adv-x="645" d="M2 1714q45 -59 168 -155q145 -115 178 -174l78 45q-10 18 -25.5 37.5t-28 33t-36 35t-33.5 30.5t-40 32.5t-36 29.5q-115 88 -154 137zM27 0q14 47 77 395q70 393 107 561q12 55 23.5 98.5t30 96.5t39.5 83q20 28 43 28h3q43 0 66 -68q29 -102 61 -422l37 -299 q6 0 14.5 -1t10.5 -1v-68l-17 3q45 -375 58 -578l-68 -4q-12 213 -57 588q-191 23 -264 22h-11l-8 -49q-68 -367 -82 -405zM193 500h11q65 0 242 -19l-34 283q-2 20 -16.5 144t-26.5 199q-12 73 -20 73q-20 0 -79 -269q-46 -218 -77 -411z" />
<glyph unicode="&#xc2;" horiz-adv-x="645" d="M0 1468l63 -53q154 184 236 442q25 63 30 74q18 -23 54 -86q29 -47 157 -299q14 -25 42 -79t44 -83l72 37q-61 119 -84 164q-141 268 -174 323q-37 63 -63.5 89t-57.5 24q-8 0 -16 -3t-15.5 -9t-12.5 -12.5t-11 -17.5t-10 -17t-9.5 -20.5t-7.5 -19.5t-7 -19.5t-7 -18.5 q-88 -256 -223 -416zM27 0q14 47 77 395q70 393 107 561q12 55 23.5 98.5t30 96.5t39.5 83q20 28 43 28h3q43 0 66 -68q29 -102 61 -422l37 -299q6 0 14.5 -1t10.5 -1v-68l-17 3q45 -375 58 -578l-68 -4q-12 213 -57 588q-191 23 -264 22h-11l-8 -49q-68 -367 -82 -405z M193 500h11q65 0 242 -19l-34 283q-2 20 -16.5 144t-26.5 199q-12 73 -20 73q-20 0 -79 -269q-46 -218 -77 -411z" />
<glyph unicode="&#xc3;" horiz-adv-x="645" d="M-86 1561l61 -74q166 133 256 119q27 -2 53.5 -22.5t39 -36t38.5 -54.5q84 -109 168 -108q55 0 125 47t129 135l-80 55q-39 -57 -82 -92t-61 -41t-31 -6q-14 0 -42.5 22.5t-45.5 45.5q-31 43 -50 66.5t-60 52t-89 34.5q-141 19 -329 -143zM27 0q14 47 77 395 q70 393 107 561q12 55 23.5 98.5t30 96.5t39.5 83q20 28 43 28h3q43 0 66 -68q29 -102 61 -422l37 -299q6 0 14.5 -1t10.5 -1v-68l-17 3q45 -375 58 -578l-68 -4q-12 213 -57 588q-191 23 -264 22h-11l-8 -49q-68 -367 -82 -405zM193 500h11q65 0 242 -19l-34 283 q-2 20 -16.5 144t-26.5 199q-12 73 -20 73q-20 0 -79 -269q-46 -218 -77 -411z" />
<glyph unicode="&#xc8;" horiz-adv-x="651" d="M101 1710q45 -59 168 -155q145 -115 178 -174l78 45q-10 18 -25.5 37.5t-28 33t-36 35t-33.5 30.5t-40 32.5t-36 29.5q-115 88 -154 137zM33 -25v66q31 0 80 4q0 109 4 317q0 27 1 82.5t1 83.5q-4 0 -14.5 -2t-14.5 -2l-6 68q6 0 17.5 1t17.5 3q1 56 0 109q0 266 -17 454 q-41 4 -61 8l12 66q52 -8 125 -8q58 0 129 5q77 5 139 5q67 0 115 -6l-8 -68q-16 9 -86 9q-45 0 -111 -4q-170 -9 -186 -9q15 -186 15 -439q0 -56 -1 -116q135 12 205 12v-67q-102 0 -205 -12q0 -29 -1 -87.5t-1 -87.5q-4 -201 -4 -307q10 2 70.5 11.5t81 11.5t69.5 5 q21 1 41 1q27 0 52 -2q43 -4 90 -14l-15 -66q-96 14 -155 14q-16 0 -30 -1q-62 -5 -169.5 -21.5t-179.5 -16.5z" />
<glyph unicode="&#xca;" horiz-adv-x="651" d="M96 1464l63 -53q154 184 236 442q25 63 30 74q18 -23 54 -86q29 -47 157 -299q14 -25 42 -79t44 -83l72 37q-61 119 -84 164q-141 268 -174 323q-37 63 -63.5 89t-57.5 24q-8 0 -16 -3t-15.5 -9t-12.5 -12.5t-11 -17.5t-10 -17t-9.5 -20.5t-7.5 -19.5t-7 -19.5t-7 -18.5 q-88 -256 -223 -416zM33 -25v66q31 0 80 4q0 109 4 317q0 27 1 82.5t1 83.5q-4 0 -14.5 -2t-14.5 -2l-6 68q6 0 17.5 1t17.5 3q1 56 0 109q0 266 -17 454q-41 4 -61 8l12 66q52 -8 125 -8q58 0 129 5q77 5 139 5q67 0 115 -6l-8 -68q-16 9 -86 9q-45 0 -111 -4 q-170 -9 -186 -9q15 -186 15 -439q0 -56 -1 -116q135 12 205 12v-67q-102 0 -205 -12q0 -29 -1 -87.5t-1 -87.5q-4 -201 -4 -307q10 2 70.5 11.5t81 11.5t69.5 5q21 1 41 1q27 0 52 -2q43 -4 90 -14l-15 -66q-96 14 -155 14q-16 0 -30 -1q-62 -5 -169.5 -21.5t-179.5 -16.5z " />
<glyph unicode="&#xcc;" horiz-adv-x="610" d="M197 1710q45 -59 168 -155q145 -115 178 -174l78 45q-10 18 -25.5 37.5t-28 33t-36 35t-33.5 30.5t-40 32.5t-36 29.5q-115 88 -154 137zM33 -27v64q57 0 233 18q0 4 -12 285q-8 183 -8 335q0 293 30 478h-38q-68 0 -187 10l6 66q76 -8 151 -9q25 0 46 -1q43 0 71 2 q42 2 115.5 7t102.5 7v-66q-31 -2 -100.5 -6t-98.5 -6q-33 -182 -36 -406q-1 -45 0 -89q0 -173 9 -320q12 -272 13 -281q53 5 100 5q36 0 70 -3l-4 -63q-34 3 -70 3q-47 0 -96 -5v-27h-64v19q-186 -17 -233 -17z" />
<glyph unicode="&#xce;" horiz-adv-x="610" d="M193 1464l63 -53q154 184 236 442q25 63 30 74q18 -23 54 -86q29 -47 157 -299q14 -25 42 -79t44 -83l72 37q-61 119 -84 164q-141 268 -174 323q-37 63 -63.5 89t-57.5 24q-8 0 -16 -3t-15.5 -9t-12.5 -12.5t-11 -17.5t-10 -17t-9.5 -20.5t-7.5 -19.5t-7 -19.5t-7 -18.5 q-88 -256 -223 -416zM33 -27v64q57 0 233 18q0 4 -12 285q-8 183 -8 335q0 293 30 478h-38q-68 0 -187 10l6 66q76 -8 151 -9q25 0 46 -1q43 0 71 2q42 2 115.5 7t102.5 7v-66q-31 -2 -100.5 -6t-98.5 -6q-33 -182 -36 -406q-1 -45 0 -89q0 -173 9 -320q12 -272 13 -281 q53 5 100 5q36 0 70 -3l-4 -63q-34 3 -70 3q-47 0 -96 -5v-27h-64v19q-186 -17 -233 -17z" />
<glyph unicode="&#xd1;" horiz-adv-x="872" d="M-332 1557l61 -74q166 133 256 119q27 -2 53.5 -22.5t39 -36t38.5 -54.5q84 -109 168 -108q55 0 125 47t129 135l-80 55q-39 -57 -82 -92t-61 -41t-31 -6q-14 0 -42.5 22.5t-45.5 45.5q-31 43 -50 66.5t-60 52t-89 34.5q-141 19 -329 -143zM33 1049q2 -29 14 -212.5 t16 -248.5q4 -356 21 -588l68 4q-16 227 -21 586q-2 100 -15.5 257t-15.5 206q-1 31 -1 54q0 70 10 71q10 0 51 -60q35 -59 78 -143t67.5 -135.5t79.5 -175t70 -154.5q184 -412 243 -506q16 -27 41 -27q16 0 31.5 16.5t17.5 41.5q16 68 17 303q-2 252 -14 590q-8 258 -9 301 h-69q0 -45 8 -303q14 -403 16 -557q0 -274 -12 -275q-10 0 -209 443q-207 485 -315 643q-55 75 -98 74q-5 0 -11 -1q-41 -10 -53 -69q-7 -39 -7 -102q1 -16 1 -33z" />
<glyph unicode="&#xd2;" horiz-adv-x="790" d="M4 1710q45 -59 168 -155q145 -115 178 -174l78 45q-10 18 -25.5 37.5t-28 33t-36 35t-33.5 30.5t-40 32.5t-36 29.5q-115 88 -154 137zM33 410q6 -178 59 -291q70 -150 219 -150q72 0 152 39q137 59 199 215q49 115 48 264q0 27 -1 54q-6 227 -109 432q-53 104 -115 168 q-51 55 -118 88l-17 28q-90 -47 -167 -182t-115 -325q-35 -152 -36 -308q1 -16 1 -32zM103 402q-1 18 0 37q0 140 34 294q39 178 101 293q43 84 100 137q113 -57 199 -221q94 -188 100 -403q1 -18 1 -36q0 -36 -3 -73q-4 -55 -21.5 -129t-64.5 -136.5t-117 -92.5 q-67 -31 -120 -31q-101 0 -156 109q-48 95 -53 252z" />
<glyph unicode="&#xd4;" horiz-adv-x="790" d="M0 1464l63 -53q154 184 236 442q25 63 30 74q18 -23 54 -86q29 -47 157 -299q14 -25 42 -79t44 -83l72 37q-61 119 -84 164q-141 268 -174 323q-37 63 -63.5 89t-57.5 24q-8 0 -16 -3t-15.5 -9t-12.5 -12.5t-11 -17.5t-10 -17t-9.5 -20.5t-7.5 -19.5t-7 -19.5t-7 -18.5 q-88 -256 -223 -416zM33 410q6 -178 59 -291q70 -150 219 -150q72 0 152 39q137 59 199 215q49 115 48 264q0 27 -1 54q-6 227 -109 432q-53 104 -115 168q-51 55 -118 88l-17 28q-90 -47 -167 -182t-115 -325q-35 -152 -36 -308q1 -16 1 -32zM103 402q-1 18 0 37 q0 140 34 294q39 178 101 293q43 84 100 137q113 -57 199 -221q94 -188 100 -403q1 -18 1 -36q0 -36 -3 -73q-4 -55 -21.5 -129t-64.5 -136.5t-117 -92.5q-67 -31 -120 -31q-101 0 -156 109q-48 95 -53 252z" />
<glyph unicode="&#xd5;" horiz-adv-x="790" d="M-86 1557l61 -74q166 133 256 119q27 -2 53.5 -22.5t39 -36t38.5 -54.5q84 -109 168 -108q55 0 125 47t129 135l-80 55q-39 -57 -82 -92t-61 -41t-31 -6q-14 0 -42.5 22.5t-45.5 45.5q-31 43 -50 66.5t-60 52t-89 34.5q-141 19 -329 -143zM33 410q6 -178 59 -291 q70 -150 219 -150q72 0 152 39q137 59 199 215q49 115 48 264q0 27 -1 54q-6 227 -109 432q-53 104 -115 168q-51 55 -118 88l-17 28q-90 -47 -167 -182t-115 -325q-35 -152 -36 -308q1 -16 1 -32zM103 402q-1 18 0 37q0 140 34 294q39 178 101 293q43 84 100 137 q113 -57 199 -221q94 -188 100 -403q1 -18 1 -36q0 -36 -3 -73q-4 -55 -21.5 -129t-64.5 -136.5t-117 -92.5q-67 -31 -120 -31q-101 0 -156 109q-48 95 -53 252z" />
<glyph unicode="&#xd9;" horiz-adv-x="780" d="M-239 1710q45 -59 168 -155q145 -115 178 -174l78 45q-10 18 -25.5 37.5t-28 33t-36 35t-33.5 30.5t-40 32.5t-36 29.5q-115 88 -154 137zM76 469q31 -156 94 -276q49 -98 118.5 -161t145.5 -63q96 0 162 97.5t94 273.5q22 136 22 309q0 217 -34 494l-68 -8 q35 -269 36 -470q0 -55 -3 -105q-12 -232 -54 -352t-106 -157q-22 -14 -48 -14q-40 0 -89 35q-141 109 -205 409q-32 143 -31 297q0 215 62 451l-66 16q-62 -242 -62 -466q0 -159 32 -310z" />
<glyph unicode="&#xdb;" horiz-adv-x="780" d="M-241 1464l63 -53q154 184 236 442q25 63 30 74q18 -23 54 -86q29 -47 157 -299q14 -25 42 -79t44 -83l72 37q-61 119 -84 164q-141 268 -174 323q-37 63 -63.5 89t-57.5 24q-8 0 -16 -3t-15.5 -9t-12.5 -12.5t-11 -17.5t-10 -17t-9.5 -20.5t-7.5 -19.5t-7 -19.5 t-7 -18.5q-88 -256 -223 -416zM76 469q31 -156 94 -276q49 -98 118.5 -161t145.5 -63q96 0 162 97.5t94 273.5q22 136 22 309q0 217 -34 494l-68 -8q35 -269 36 -470q0 -55 -3 -105q-12 -232 -54 -352t-106 -157q-22 -14 -48 -14q-40 0 -89 35q-141 109 -205 409 q-32 143 -31 297q0 215 62 451l-66 16q-62 -242 -62 -466q0 -159 32 -310z" />
<glyph unicode="&#xe0;" horiz-adv-x="784" d="M33 1331q45 -59 168 -155q145 -115 178 -174l78 45q-10 18 -25.5 37.5t-28 33t-36 35t-33.5 30.5t-40 32.5t-36 29.5q-115 88 -154 137zM47 391q-2 -31 -2 -61q0 -130 37 -232q41 -147 117 -147q8 0 16 2q63 8 123 141q41 72 96 262q6 18 15.5 53t13.5 48 q31 -131 100 -287q84 -168 150 -207l39 55q-53 35 -122 179.5t-104 308.5q-14 61 -18 131q35 145 33 166l4 8q2 25 -25 43q-29 10 -39 -16q-41 -57 -45 -195q-31 -143 -65 -242q-47 -164 -90 -257t-57.5 -106t-22.5 -13q-1 0 -3 -1q-20 0 -48 95q-35 109 -35 221q0 27 2 53 q10 139 65 242q70 135 213 176l-16 68q-178 -47 -258 -207q-64 -113 -74 -281z" />
<glyph unicode="&#xe2;" horiz-adv-x="784" d="M29 1085l63 -53q154 184 236 442q25 63 30 74q18 -23 54 -86q29 -47 157 -299q14 -25 42 -79t44 -83l72 37q-61 119 -84 164q-141 268 -174 323q-37 63 -63.5 89t-57.5 24q-8 0 -16 -3t-15.5 -9t-12.5 -12.5t-11 -17.5t-10 -17t-9.5 -20.5t-7.5 -19.5t-7 -19.5t-7 -18.5 q-88 -256 -223 -416zM47 391q-2 -31 -2 -61q0 -130 37 -232q41 -147 117 -147q8 0 16 2q63 8 123 141q41 72 96 262q6 18 15.5 53t13.5 48q31 -131 100 -287q84 -168 150 -207l39 55q-53 35 -122 179.5t-104 308.5q-14 61 -18 131q35 145 33 166l4 8q2 25 -25 43 q-29 10 -39 -16q-41 -57 -45 -195q-31 -143 -65 -242q-47 -164 -90 -257t-57.5 -106t-22.5 -13q-1 0 -3 -1q-20 0 -48 95q-35 109 -35 221q0 27 2 53q10 139 65 242q70 135 213 176l-16 68q-178 -47 -258 -207q-64 -113 -74 -281z" />
<glyph unicode="&#xe3;" horiz-adv-x="784" d="M-57 1178l61 -74q166 133 256 119q27 -2 53.5 -22.5t39 -36t38.5 -54.5q84 -109 168 -108q55 0 125 47t129 135l-80 55q-39 -57 -82 -92t-61 -41t-31 -6q-14 0 -42.5 22.5t-45.5 45.5q-31 43 -50 66.5t-60 52t-89 34.5q-141 19 -329 -143zM47 391q-2 -31 -2 -61 q0 -130 37 -232q41 -147 117 -147q8 0 16 2q63 8 123 141q41 72 96 262q6 18 15.5 53t13.5 48q31 -131 100 -287q84 -168 150 -207l39 55q-53 35 -122 179.5t-104 308.5q-14 61 -18 131q35 145 33 166l4 8q2 25 -25 43q-29 10 -39 -16q-41 -57 -45 -195q-31 -143 -65 -242 q-47 -164 -90 -257t-57.5 -106t-22.5 -13q-1 0 -3 -1q-20 0 -48 95q-35 109 -35 221q0 27 2 53q10 139 65 242q70 135 213 176l-16 68q-178 -47 -258 -207q-64 -113 -74 -281z" />
<glyph unicode="&#xe8;" horiz-adv-x="622" d="M58 1296q45 -59 168 -155q145 -115 178 -174l78 45q-10 18 -25.5 37.5t-28 33t-36 35t-33.5 30.5t-40 32.5t-36 29.5q-115 88 -154 137zM28 284q7 -120 60 -210q68 -104 178 -105q135 0 289 160l-47 45q-90 -90 -168 -121q-38 -16 -73 -16q-21 0 -42 6q-63 20 -96 97 t-33 145q180 39 293 131q115 92 143 213q8 36 9 66q0 83 -62 124q-34 25 -76 25q-61 0 -139 -53q-135 -94 -196 -259q-41 -112 -41 -217q0 -15 1 -31zM96 352q8 113 59.5 215.5t145.5 165.5q60 44 103 44q21 0 38 -11q31 -24 31 -72q0 -22 -6 -49q-20 -92 -113.5 -175 t-257.5 -118z" />
<glyph unicode="&#xea;" horiz-adv-x="622" d="M53 1050l63 -53q154 184 236 442q25 63 30 74q18 -23 54 -86q29 -47 157 -299q14 -25 42 -79t44 -83l72 37q-61 119 -84 164q-141 268 -174 323q-37 63 -63.5 89t-57.5 24q-8 0 -16 -3t-15.5 -9t-12.5 -12.5t-11 -17.5t-10 -17t-9.5 -20.5t-7.5 -19.5t-7 -19.5t-7 -18.5 q-88 -256 -223 -416zM28 284q7 -120 60 -210q68 -104 178 -105q135 0 289 160l-47 45q-90 -90 -168 -121q-38 -16 -73 -16q-21 0 -42 6q-63 20 -96 97t-33 145q180 39 293 131q115 92 143 213q8 36 9 66q0 83 -62 124q-34 25 -76 25q-61 0 -139 -53q-135 -94 -196 -259 q-41 -112 -41 -217q0 -15 1 -31zM96 352q8 113 59.5 215.5t145.5 165.5q60 44 103 44q21 0 38 -11q31 -24 31 -72q0 -22 -6 -49q-20 -92 -113.5 -175t-257.5 -118z" />
<glyph unicode="&#xec;" horiz-adv-x="333" d="M-200 1575q45 -59 168 -155q145 -115 178 -174l78 45q-10 18 -25.5 37.5t-28 33t-36 35t-33.5 30.5t-40 32.5t-36 29.5q-115 88 -154 137zM70 377q6 -369 94 -400q12 -6 26 -6q35 0 76 43l-55 47q-4 -4 -8 -7t-7 -5t-3 -4q-43 51 -52 344q-1 46 -1 94q0 165 12 338h-76 q-8 -169 -8 -310q0 -71 2 -134zM74 1112q2 -10 3 -27.5t2 -26.5t3 -22.5t5 -20.5t8 -14.5t11 -9.5q3 -1 7 -1t8 1q10 2 18 8.5t14.5 19.5t9.5 23.5t6 26.5t5 25l-27 4q0 16 -2 24z" />
<glyph unicode="&#xee;" horiz-adv-x="333" d="M-205 1329l63 -53q154 184 236 442q25 63 30 74q18 -23 54 -86q29 -47 157 -299q14 -25 42 -79t44 -83l72 37q-61 119 -84 164q-141 268 -174 323q-37 63 -63.5 89t-57.5 24q-8 0 -16 -3t-15.5 -9t-12.5 -12.5t-11 -17.5t-10 -17t-9.5 -20.5t-7.5 -19.5t-7 -19.5 t-7 -18.5q-88 -256 -223 -416zM70 377q6 -369 94 -400q12 -6 26 -6q35 0 76 43l-55 47q-4 -4 -8 -7t-7 -5t-3 -4q-43 51 -52 344q-1 46 -1 94q0 165 12 338h-76q-8 -169 -8 -310q0 -71 2 -134zM74 1112q2 -10 3 -27.5t2 -26.5t3 -22.5t5 -20.5t8 -14.5t11 -9.5q3 -1 7 -1 t8 1q10 2 18 8.5t14.5 19.5t9.5 23.5t6 26.5t5 25l-27 4q0 16 -2 24z" />
<glyph unicode="&#xf1;" horiz-adv-x="655" d="M-143 1143l61 -74q166 133 256 119q27 -2 53.5 -22.5t39 -36t38.5 -54.5q84 -109 168 -108q55 0 125 47t129 135l-80 55q-39 -57 -82 -92t-61 -41t-31 -6q-14 0 -42.5 22.5t-45.5 45.5q-31 43 -50 66.5t-60 52t-89 34.5q-141 19 -329 -143zM33 776q46 -46 46 -284 q0 -37 -1 -78q0 -12 -1 -40t-3 -40q-23 -121 -23 -148q-4 -37 -10 -127q-2 -12 -2 -30v-9q2 -29 27 -32q29 -4 36 24q16 41 35 314q12 72 17 92q33 154 122 266q78 95 133 95q5 0 11 -1q33 -6 51 -57q17 -51 17 -137q0 -36 -3 -78q0 -16 -2 -29q-14 -207 -14 -272 q0 -94 8 -142q12 -76 49 -92l25 60l2 -2q-21 21 -21 161v27q0 61 15 256q0 6 1 15.5t1 11.5q4 44 3 83q0 97 -22 158q-29 88 -100 103h-12q-49 0 -94 -31q-47 -29 -95 -88q-51 -59 -88 -143q-10 180 -57 235z" />
<glyph unicode="&#xf2;" d="M-110 1300q45 -59 168 -155q145 -115 178 -174l78 45q-10 18 -25.5 37.5t-28 33t-36 35t-33.5 30.5t-40 32.5t-36 29.5q-115 88 -154 137zM41 428q-9 -87 -9 -158q0 -194 66 -262q33 -33 78 -33q55 0 113 45q100 72 136 233q21 92 21 185q0 69 -12 140q-39 227 -162 266 q-18 5 -36 4q-30 0 -60 -12q-49 -18 -98 -74l28 -25q-45 -135 -65 -309zM109 420q29 256 84 350q23 13 43 13q9 0 18 -3q84 -23 115 -213q11 -67 11 -133q0 -78 -15 -155q-31 -143 -113 -207q-45 -31 -75 -32q-19 0 -32 13q-46 51 -45 209q0 69 9 158z" />
<glyph unicode="&#xf4;" d="M-112 1055l63 -53q154 184 236 442q25 63 30 74q18 -23 54 -86q29 -47 157 -299q14 -25 42 -79t44 -83l72 37q-61 119 -84 164q-141 268 -174 323q-37 63 -63.5 89t-57.5 24q-8 0 -16 -3t-15.5 -9t-12.5 -12.5t-11 -17.5t-10 -17t-9.5 -20.5t-7.5 -19.5t-7 -19.5 t-7 -18.5q-88 -256 -223 -416zM41 428q-9 -87 -9 -158q0 -194 66 -262q33 -33 78 -33q55 0 113 45q100 72 136 233q21 92 21 185q0 69 -12 140q-39 227 -162 266q-18 5 -36 4q-30 0 -60 -12q-49 -18 -98 -74l28 -25q-45 -135 -65 -309zM109 420q29 256 84 350q23 13 43 13 q9 0 18 -3q84 -23 115 -213q11 -67 11 -133q0 -78 -15 -155q-31 -143 -113 -207q-45 -31 -75 -32q-19 0 -32 13q-46 51 -45 209q0 69 9 158z" />
<glyph unicode="&#xf5;" d="M-198 1147l61 -74q166 133 256 119q27 -2 53.5 -22.5t39 -36t38.5 -54.5q84 -109 168 -108q55 0 125 47t129 135l-80 55q-39 -57 -82 -92t-61 -41t-31 -6q-14 0 -42.5 22.5t-45.5 45.5q-31 43 -50 66.5t-60 52t-89 34.5q-141 19 -329 -143zM41 428q-9 -87 -9 -158 q0 -194 66 -262q33 -33 78 -33q55 0 113 45q100 72 136 233q21 92 21 185q0 69 -12 140q-39 227 -162 266q-18 5 -36 4q-30 0 -60 -12q-49 -18 -98 -74l28 -25q-45 -135 -65 -309zM109 420q29 256 84 350q23 13 43 13q9 0 18 -3q84 -23 115 -213q11 -67 11 -133 q0 -78 -15 -155q-31 -143 -113 -207q-45 -31 -75 -32q-19 0 -32 13q-46 51 -45 209q0 69 9 158z" />
<glyph unicode="&#xf9;" horiz-adv-x="735" d="M-231 1296q45 -59 168 -155q145 -115 178 -174l78 45q-10 18 -25.5 37.5t-28 33t-36 35t-33.5 30.5t-40 32.5t-36 29.5q-115 88 -154 137zM76 713q-6 -130 -6 -229q0 -127 10 -203q14 -121 59 -197q37 -61 96.5 -85t178.5 -24q55 0 90 33q43 45 57 135q20 -70 45 -120 l64 28q-55 106 -76 342q0 68 -21.5 237t-50.5 175q-23 8 -36 -8.5t-15 -57.5q-1 -20 -1 -42t1 -46q2 -47 10 -121q21 -202 21 -298q0 -34 -2 -56q-14 -131 -99 -131h-6q-127 6 -178 63.5t-67 180.5q-10 78 -11 202q0 96 6 220q4 86 5 108h-70q0 -20 -4 -106z" />
<glyph unicode="&#xfb;" horiz-adv-x="735" d="M-233 1050l63 -53q154 184 236 442q25 63 30 74q18 -23 54 -86q29 -47 157 -299q14 -25 42 -79t44 -83l72 37q-61 119 -84 164q-141 268 -174 323q-37 63 -63.5 89t-57.5 24q-8 0 -16 -3t-15.5 -9t-12.5 -12.5t-11 -17.5t-10 -17t-9.5 -20.5t-7.5 -19.5t-7 -19.5 t-7 -18.5q-88 -256 -223 -416zM76 713q-6 -130 -6 -229q0 -127 10 -203q14 -121 59 -197q37 -61 96.5 -85t178.5 -24q55 0 90 33q43 45 57 135q20 -70 45 -120l64 28q-55 106 -76 342q0 68 -21.5 237t-50.5 175q-23 8 -36 -8.5t-15 -57.5q-1 -20 -1 -42t1 -46q2 -47 10 -121 q21 -202 21 -298q0 -34 -2 -56q-14 -131 -99 -131h-6q-127 6 -178 63.5t-67 180.5q-10 78 -11 202q0 96 6 220q4 86 5 108h-70q0 -20 -4 -106z" />
<glyph unicode="&#x152;" horiz-adv-x="1441" d="M824 -25v66q31 0 80 4q0 109 4 317q0 27 1 82.5t1 83.5q-4 0 -14.5 -2t-14.5 -2l-6 68q6 0 17.5 1t17.5 3q1 56 0 109q0 266 -17 454q-41 4 -61 8l12 66q52 -8 125 -8q58 0 129 5q77 5 139 5q67 0 115 -6l-8 -68q-16 9 -86 9q-45 0 -111 -4q-170 -9 -186 -9 q15 -186 15 -439q0 -56 -1 -116q135 12 205 12v-67q-102 0 -205 -12q0 -29 -1 -87.5t-1 -87.5q-4 -201 -4 -307q10 2 70.5 11.5t81 11.5t69.5 5q21 1 41 1q27 0 52 -2q43 -4 90 -14l-15 -66q-96 14 -155 14q-16 0 -30 -1q-62 -5 -169.5 -21.5t-179.5 -16.5zM33 410 q6 -178 59 -291q70 -150 219 -150q72 0 152 39q137 59 199 215q49 115 48 264q0 27 -1 54q-6 227 -109 432q-53 104 -115 168q-51 55 -118 88l-17 28q-90 -47 -167 -182t-115 -325q-35 -152 -36 -308q1 -16 1 -32zM103 402q-1 18 0 37q0 140 34 294q39 178 101 293 q43 84 100 137q113 -57 199 -221q94 -188 100 -403q1 -18 1 -36q0 -36 -3 -73q-4 -55 -21.5 -129t-64.5 -136.5t-117 -92.5q-67 -31 -120 -31q-101 0 -156 109q-48 95 -53 252z" />
<glyph unicode="&#x153;" horiz-adv-x="1134" d="M540 284q7 -120 60 -210q68 -104 178 -105q135 0 289 160l-47 45q-90 -90 -168 -121q-38 -16 -73 -16q-21 0 -42 6q-63 20 -96 97t-33 145q180 39 293 131q115 92 143 213q8 36 9 66q0 83 -62 124q-34 25 -76 25q-61 0 -139 -53q-135 -94 -196 -259q-41 -112 -41 -217 q0 -15 1 -31zM608 352q8 113 59.5 215.5t145.5 165.5q60 44 103 44q21 0 38 -11q31 -24 31 -72q0 -22 -6 -49q-20 -92 -113.5 -175t-257.5 -118zM41 428q-9 -87 -9 -158q0 -194 66 -262q33 -33 78 -33q55 0 113 45q100 72 136 233q21 92 21 185q0 69 -12 140 q-39 227 -162 266q-18 5 -36 4q-30 0 -60 -12q-49 -18 -98 -74l28 -25q-45 -135 -65 -309zM109 420q29 256 84 350q23 13 43 13q9 0 18 -3q84 -23 115 -213q11 -67 11 -133q0 -78 -15 -155q-31 -143 -113 -207q-45 -31 -75 -32q-19 0 -32 13q-46 51 -45 209q0 69 9 158z" />
<glyph unicode="&#x2c6;" horiz-adv-x="798" d="M33 903l63 -53q154 184 236 442q25 63 30 74q18 -23 54 -86q29 -47 157 -299q14 -25 42 -79t44 -83l72 37q-61 119 -84 164q-141 268 -174 323q-37 63 -63.5 89t-57.5 24q-8 0 -16 -3t-15.5 -9t-12.5 -12.5t-11 -17.5t-10 -17t-9.5 -20.5t-7.5 -19.5t-7 -19.5t-7 -18.5 q-88 -256 -223 -416z" />
<glyph unicode="&#x2dc;" d="M-434 299l61 -74q166 133 256 119q27 -2 53.5 -22.5t39 -36t38.5 -54.5q84 -109 168 -108q55 0 125 47t129 135l-80 55q-39 -57 -82 -92t-61 -41t-31 -6q-14 0 -42.5 22.5t-45.5 45.5q-31 43 -50 66.5t-60 52t-89 34.5q-141 19 -329 -143z" />
<glyph unicode="&#x2000;" horiz-adv-x="1009" />
<glyph unicode="&#x2001;" horiz-adv-x="2021" />
<glyph unicode="&#x2002;" horiz-adv-x="1009" />
<glyph unicode="&#x2003;" horiz-adv-x="2021" />
<glyph unicode="&#x2004;" horiz-adv-x="673" />
<glyph unicode="&#x2005;" horiz-adv-x="503" />
<glyph unicode="&#x2006;" horiz-adv-x="335" />
<glyph unicode="&#x2007;" horiz-adv-x="335" />
<glyph unicode="&#x2008;" horiz-adv-x="251" />
<glyph unicode="&#x2009;" horiz-adv-x="403" />
<glyph unicode="&#x200a;" horiz-adv-x="110" />
<glyph unicode="&#x2010;" horiz-adv-x="614" d="M33 592q61 -4 146 -6t148.5 -2t135.5 1t84 1v80q-422 0 -508 6z" />
<glyph unicode="&#x2011;" horiz-adv-x="614" d="M33 592q61 -4 146 -6t148.5 -2t135.5 1t84 1v80q-422 0 -508 6z" />
<glyph unicode="&#x2012;" horiz-adv-x="614" d="M33 592q61 -4 146 -6t148.5 -2t135.5 1t84 1v80q-422 0 -508 6z" />
<glyph unicode="&#x2013;" horiz-adv-x="716" d="M33 592q156 -12 260 -12q150 0 223 2q37 0 67.5 2t65.5 2v80q-37 0 -67.5 -2t-67.5 -2q-289 -2 -475 10z" />
<glyph unicode="&#x2014;" horiz-adv-x="1126" d="M33 592q156 -12 215 -12q37 0 193.5 1t193.5 1q49 0 220 2t204 2v80q-35 0 -206 -2t-220 -2q-449 0 -594 10z" />
<glyph unicode="&#x2018;" horiz-adv-x="327" d="M68 1151q-2 -129 47 -170q20 -16 51 -16q27 0 59 16l-43 80q-10 -6 -14 -6q-12 18 -10 96q2 51 26 160l-86 20q-22 -84 -30 -180z" />
<glyph unicode="&#x2019;" horiz-adv-x="327" d="M68 1309l43 -80q8 6 14 6q12 -18 10 -96q-2 -51 -26 -160l86 -21q23 84 30 181q2 129 -47 170q-20 16 -51 16q-26 0 -59 -16z" />
<glyph unicode="&#x201a;" horiz-adv-x="327" d="M68 82l45 -80q6 8 12 8q12 -25 10 -98q-4 -72 -26 -158l86 -22q25 94 28 180q8 127 -43 170q-46 37 -112 0z" />
<glyph unicode="&#x201c;" horiz-adv-x="614" d="M68 1151q-2 -129 47 -170q20 -16 51 -16q27 0 59 16l-43 80q-10 -6 -14 -6q-12 18 -10 96q2 51 26 160l-86 20q-22 -84 -30 -180zM354 1151q-2 -129 47 -170q20 -16 52 -16q27 0 59 16l-43 80q-10 -6 -14 -6q-12 18 -11 96q2 51 27 160l-86 20q-23 -84 -31 -180z" />
<glyph unicode="&#x201d;" horiz-adv-x="614" d="M68 1309l43 -80q8 6 14 6q12 -18 10 -96q-2 -51 -26 -160l86 -21q23 84 30 181q2 129 -47 170q-20 16 -51 16q-26 0 -59 -16zM354 1309l43 -80q8 6 15 6q12 -18 10 -96q-2 -51 -27 -160l86 -21q23 84 31 181q2 129 -47 170q-20 16 -51 16q-27 0 -60 -16z" />
<glyph unicode="&#x201e;" horiz-adv-x="634" d="M68 82l45 -80q6 8 12 8q12 -25 10 -98q-4 -72 -26 -158l86 -22q25 94 28 180q8 127 -43 170q-46 37 -112 0zM375 82l45 -80q6 8 12 8q12 -25 10 -98q-4 -72 -26 -158l86 -22q25 94 28 180q8 127 -43 170q-46 37 -112 0z" />
<glyph unicode="&#x2022;" horiz-adv-x="620" d="M135 612q0 -20 10 -37v-2v-32q6 -39 43 -52h13q29 0 45 25h26h35q23 -2 47 6q31 12 43 35q8 12 11 20l8 13q25 31 16 78v10q0 4 -2 8t-2 8q-8 31 -43 58q-27 31 -61 49q-4 14 -29 26q-31 14 -62 -6q-14 -14 -22 -24q-2 -2 -4 -7l-2 -4q-20 -18 -35 -53q-2 -2 -4 -6l-4 -8 q-4 -6 -8 -15l-7 -12q-12 -18 -12 -41v-26v-11z" />
<glyph unicode="&#x2026;" horiz-adv-x="925" d="M70 53l4 -8q2 -4 2 -8q0 -2 22 -51l21 8q20 -16 43 -17q14 0 24 7q31 18 29 65l-14 57l-41 -10l-2 2q-33 37 -68 15q-31 -18 -20 -58v-2zM365 53l4 -8q2 -4 2 -8q0 -2 22 -51l21 8q20 -16 43 -17q14 0 24 7q31 18 29 65l-14 57l-41 -10l-2 2q-33 37 -68 15 q-31 -18 -20 -58v-2zM678 55l2 -2q0 -4 2 -8t2 -8q0 -2 23 -51l20 8q20 -16 43 -17q16 0 25 7q31 18 28 65l-14 57l-41 -10l-2 2q-33 37 -68 15q-30 -19 -20 -58z" />
<glyph unicode="&#x202f;" horiz-adv-x="403" />
<glyph unicode="&#x2039;" horiz-adv-x="536" d="M68 483q0 -109 335 -366l52 67q-111 84 -207 175.5t-94 121.5q0 33 127 123q123 92 188 152l-55 63q-78 -70 -185 -145q-61 -47 -86.5 -68.5t-50 -55.5t-24.5 -67z" />
<glyph unicode="&#x203a;" horiz-adv-x="536" d="M68 180l55 -63q78 70 184 145q61 47 87 68.5t50.5 55.5t24.5 67q0 109 -336 366l-51 -67q111 -84 207 -175.5t94 -121.5q0 -33 -127 -123q-122 -93 -188 -152z" />
<glyph unicode="&#x205f;" horiz-adv-x="503" />
<glyph unicode="&#x2122;" horiz-adv-x="1554" d="M696 0l70 -14q43 217 43 516q0 125 -4 283.5t-8 212.5q-1 23 -1 42q0 25 2 41q4 0 60 -182q20 -74 32.5 -109.5t38 -92t58.5 -92.5t78 -58q12 -6 24 -6q40 0 77 68q48 89 130 323q6 18 10 29.5t11.5 34t12.5 38t11 34.5t11 32l11 24q5 12 8 17.5t5 3.5q4 -4 4 -109 q0 -96 -1 -291.5t-1 -289.5q-4 -381 -4 -580h72q0 199 4 580q0 94 1 288.5t1 293t-6 147.5q-14 70 -50 78q-4 1 -7 0q-26 0 -44 -24q-20 -28 -43 -83q-23 -53 -73 -203q-16 -39 -45 -121.5t-51.5 -134t-45.5 -80.5q-61 35 -94 107t-66 197q-18 63 -34.5 109t-39 97.5t-49 75 t-53.5 17.5q-10 -6 -16 -16.5t-8 -28t-2 -31t1 -37t1 -31.5q10 -158 10 -573q0 -293 -41 -502zM33 1167v68q6 0 276.5 -6t274.5 -6v-66q-72 0 -211 4q0 -199 -13 -563q-10 -492 -10 -598h-67q0 209 12 598q10 311 10 565q-180 4 -272 4z" />
<glyph unicode="&#xe000;" horiz-adv-x="860" d="M0 860h860v-860h-860v860z" />
<glyph unicode="&#xfb01;" horiz-adv-x="626" d="M23 745v70h61q-10 49 -2 151.5t25.5 205t69.5 186.5t128 98q154 31 252 -305q8 -23 -14 -45q-27 -12 -64 -9t-53 13l39 61q8 0 12 -2q-37 111 -78 168.5t-80 48.5q-72 -14 -113.5 -135t-50 -238.5t0.5 -193.5q88 6 155 12q68 10 112 8.5t69 -24.5q27 -27 29.5 -85 t-9.5 -173q-25 -369 -25 -588h-69q0 250 22 594q14 184 0 201q-12 10 -123 -2q-106 -10 -155 -12q55 -496 28 -760l-71 8q27 258 -29 747h-67z" />
<glyph unicode="&#xfb02;" horiz-adv-x="841" d="M33 803v74q82 -4 127 -5q8 102 38.5 224.5t94 235t139.5 126.5q125 25 232 -211l-64 -28q-86 182 -154 170q-70 -14 -135 -183.5t-80 -331.5q104 8 175 25l16 -70q-78 -16 -193 -24q-2 -141 37 -381q39 -291 35 -428l-72 4q4 141 -36 412q-37 258 -35 391h-90h-35z M582 175q-4 159 30 409q2 14 6.5 56t6.5 64.5t6 62.5t5 65.5t3 59.5t1 54.5t-2 42t-6 33.5t-11 16l-7 -2l-22 70q45 12 74 -12q47 -37 47 -150t-31 -369q-41 -395 -20 -491q10 -39 26 -49q8 -6 49 10l37 -61q-49 -25 -78 -25q-31 0 -49 16q-61 41 -65 200z" />
<glyph unicode="&#xfb03;" horiz-adv-x="1361" d="M1098 377q6 -369 94 -400q12 -6 26 -6q35 0 76 43l-55 47q-4 -4 -8 -7t-7 -5t-3 -4q-43 51 -52 344q-1 46 -1 94q0 165 12 338h-76q-8 -169 -8 -310q0 -71 2 -134zM1102 1112q2 -10 3 -27.5t2 -26.5t3 -22.5t5 -20.5t8 -14.5t11 -9.5q3 -1 7 -1t8 1q10 2 18 8.5 t14.5 19.5t9.5 23.5t6 26.5t5 25l-27 4q0 16 -2 24zM537 766l4 68h4q37 -2 106 -7q-6 131 -6 265q0 160 59 262q61 98 152 108q11 1 22 1q83 0 144 -70q68 -72 108 -232l-69 -14q-29 133 -90 201q-46 50 -96 49h-11q-59 -6 -105 -86t-46 -219q0 -131 6 -267q115 0 213 23 l16 -68q-102 -23 -219 -22h-6q12 -217 70 -740l2 -18l-66 -8l-4 20q-57 524 -70 748q-18 2 -56 4t-58 2h-4zM23 766l4 68h4q37 -2 106 -7q-6 131 -6 265q0 160 59 262q61 98 152 108q11 1 22 1q83 0 144 -70q68 -72 108 -232l-69 -14q-29 133 -90 201q-46 50 -96 49h-11 q-59 -6 -105 -86t-46 -219q0 -131 6 -267q115 0 213 23l16 -68q-102 -23 -219 -22h-6q12 -217 70 -740l2 -18l-66 -8l-4 20q-57 524 -70 748q-18 2 -56 4t-58 2h-4z" />
<glyph unicode="&#xfb04;" horiz-adv-x="1421" d="M1028 1378l55 -37q10 14 47 52q27 -23 37 -230q0 -20 1 -51q0 -125 -7 -428q-8 -212 -8 -356q0 -192 14 -262q10 -47 28 -72q16 -23 45 -23h5q47 2 109 109l-58 33q-29 -51 -51 -74q-12 25 -16 57q-10 72 -10 232q0 142 8 354q9 358 8 465v33q-8 256 -84 278q-8 3 -17 3 q-47 0 -106 -83zM537 766l4 68h4q37 -2 106 -7q-6 131 -6 265q0 160 59 262q61 98 152 108q11 1 22 1q83 0 144 -70q68 -72 108 -232l-69 -14q-29 133 -90 201q-46 50 -96 49h-11q-59 -6 -105 -86t-46 -219q0 -131 6 -267q115 0 213 23l16 -68q-102 -23 -219 -22h-6 q12 -217 70 -740l2 -18l-66 -8l-4 20q-57 524 -70 748q-18 2 -56 4t-58 2h-4zM23 766l4 68h4q37 -2 106 -7q-6 131 -6 265q0 160 59 262q61 98 152 108q11 1 22 1q83 0 144 -70q68 -72 108 -232l-69 -14q-29 133 -90 201q-46 50 -96 49h-11q-59 -6 -105 -86t-46 -219 q0 -131 6 -267q115 0 213 23l16 -68q-102 -23 -219 -22h-6q12 -217 70 -740l2 -18l-66 -8l-4 20q-57 524 -70 748q-18 2 -56 4t-58 2h-4z" />
</font>
</defs>
</svg>
