<?xml version="1.0" encoding="utf-8"?>
<!-- Generator: Adobe Illustrator 16.2.1, SVG Export Plug-In . SVG Version: 6.00 Build 0)  -->
<!DOCTYPE svg PUBLIC "-//W3C//DTD SVG 1.1//EN" "http://www.w3.org/Graphics/SVG/1.1/DTD/svg11.dtd">
<svg version="1.1" id="Layer_1" xmlns="http://www.w3.org/2000/svg" xmlns:xlink="http://www.w3.org/1999/xlink" x="0px" y="0px"
	 viewBox="3950.646 -1096.494 1376 1052" enable-background="new 3950.646 -1096.494 1376 1052"
	 xml:space="preserve">
<radialGradient id="SVGID_1_" cx="4603.1865" cy="-246.8711" r="808.9951" gradientUnits="userSpaceOnUse">
	<stop  offset="0.2651" style="stop-color:#F0F0C1;stop-opacity:0.1"/>
	<stop  offset="1" style="stop-color:#F0F0C1;stop-opacity:0.4"/>
</radialGradient>
<path fill="url(#SVGID_1_)" d="M3933.211-33.585c277.834-6.747,412.339,641.511,689.512,656.909
	c119.518,6.641,565.811-632.5,685.02-632.5c7.301,0,19.934,2.647,23.128-6.938c2.041-6.122-1.062-14.437,0-20.815
	c10.322-61.931,13.877-106.058,13.877-168.831c0-7.967,4.605-45.491-4.626-48.567c-39.643-13.215-137.169,55.611-175.77,71.694
	c-28.812,12.005-60.066,15.831-87.885,27.754c-66.152,28.351-311.833,92.033-350.52,88.203c-17.412-1.724,5.326-11.579,16.053-15.87
	c15.354-6.141,32.359-15.182,47.853-22.929c41.981-20.99,111.626-38.661,146.66-64.937c34.484-25.864,93.288-44.968,128.39-70.04
	c45.729-32.663,90.737-74.278,141.079-99.448c25.943-12.973,116.995-69.784,127.202-90.198
	c16.081-32.164,9.226-92.635,2.312-127.202c-3.17-15.853,6.052-70.27-4.625-80.947c-13.359-13.358-85.849,51.157-97.136,62.445
	c-24.988,24.988-57.196,41.16-80.947,67.07c-78.377,85.502-184.021,144.705-265.967,226.65
	c-36.706,36.706-79.313,69.564-117.951,101.762c-10.125,8.438-25.354,16.103-34.69,25.44c-1.507,1.507-16.19,9.591-16.19,9.25
	c0-20.651,86.918-119.054,106.387-143.391c48.099-60.122,100.088-114.84,150.33-173.457c11.492-13.407,29.559-22.619,41.629-34.691
	c28.098-28.097,48.625-65.502,78.635-92.511c54.899-49.409,111.227-102.027,157.268-159.58c9.048-11.311,15.205-26.769,25.44-37.004
	c20.77-20.769,60.132-57.882,60.132-87.885c0-34.004,4.861-189.177-4.625-208.149c-2.357-4.713-7.157-9.323-13.877-11.563
	c-45.371-15.124-103.394,113.673-122.576,141.078c-114.966,164.237-231.247,325.602-360.791,481.054
	c-34.213,41.056-38.508,102.597-74.73,138.82c-12.731,12.731-87.564,133.733-91.363,133.733c-1.932,0,16.882-43.69,19.861-67.528
	c6.675-53.398,17.44-79.417,39.724-128.438c29.676-65.287,56.403-142.2,92.632-203.789
	c48.516-82.476,93.827-169.149,136.453-254.403c21.478-42.956,47.315-78.973,64.758-122.577
	c5.617-14.044,50.621-134.399,46.255-138.765c-7.528-7.528-119.767,4.543-134.14,6.938c-26.704,4.451-135.458,8.256-150.33,23.128
	c-15.613,15.613-27.178,122.017-32.378,148.016c-11.977,59.879-24.44,120.889-39.317,180.396
	c-16.521,66.086-14.456,137.756-34.691,203.522c-20.7,67.276-24.512,140.141-43.942,208.148
	c-1.273,4.454-25.298,135.254-35.062,125.491c-7.063-7.063-27.067-196.344-29.695-222.627
	c-5.137-51.369-12.232-103.506-16.19-154.955c-6.354-82.609,0.436-167.449-9.251-249.778c-2.41-20.483-9.242-41.553-11.563-62.445
	c-7.192-64.728-2.466-139.225-23.127-201.21c-1.423-4.269-90.119-6.938-101.763-6.938c-22.603,0-118.027-2.236-134.14,13.877
	c-2.388,2.388,0,17.656,0,20.814c0,49.171,46.877,153.459,64.758,203.523c39.281,109.988,61.759,226.541,104.074,335.351
	c25.809,66.366,32.872,137.935,55.506,205.835c8.305,24.916,36.511,104.703,36.511,127.822c0,0.317-19.498-31.938-33.103-52.965
	c-21.635-33.437-44.297-66.16-68.165-97.984c-83.199-110.931-159.898-222.166-224.338-344.602
	c-31.079-59.05-193.285-237.47-227.28-294.129c-1.571-2.619-27.024-42.358-34.69-34.691
	c-10.789,10.789-11.564,128.029-11.564,150.329c0,44.972-7.713,171.907,11.564,210.461c6.658,13.317,207.879,197.574,222.653,210.87
	c67.496,60.747,129.501,125.341,201.21,182.708c18.962,15.17,121.95,105.646,129.286,120.318
	c1.222,2.443-54.342-10.269-56.936-10.593c-44.432-5.554-75.835-36.354-118.605-51.906c-12.745-4.635-180.636-85.521-196.585-94.823
	c-18.275-10.661-188.607-114.83-208.598-114.83c-6.167,0,0,12.335,0,18.502c0,18.604-2.312,36.848-2.312,55.506
	c0,38.399-2.98,25.595,6.127,62.023c2.264,9.058,25.717,11.61,33.102,14.564c81.928,32.771,196.137,109.753,281.636,126.854
	c35.263,7.052,131.186,39.926,166.837,45.019c27.522,3.933,77.341,26.922,76.71,27.552c-5.793,5.793-81.215,9.523-87.303,9.523
	c-98.136,0-291.265-103.02-386.24-103.02c-7.271,0-94.873-13.865-95.763-12.976c-6.889,6.89-59.985,152.337-50.914,161.409
	c4.787,4.786,41.714,0,46.256,0"/>
</svg>
