<?xml version="1.0" encoding="utf-8"?>
<!-- Generator: Adobe Illustrator 16.2.1, SVG Export Plug-In . SVG Version: 6.00 Build 0)  -->
<!DOCTYPE svg PUBLIC "-//W3C//DTD SVG 1.1//EN" "http://www.w3.org/Graphics/SVG/1.1/DTD/svg11.dtd">
<svg version="1.1" id="Layer_1" xmlns="http://www.w3.org/2000/svg" xmlns:xlink="http://www.w3.org/1999/xlink" x="0px" y="0px"
	 viewBox="2505.671 236.5 1456.112 311.146"
	 enable-background="new 2505.671 236.5 1456.112 311.146" xml:space="preserve">
<path fill="#FFD8B2" stroke="#000000" stroke-width="2" vector-effect="non-scaling-stroke" d="M2553.804,320c20.998,42.446,58.419,83.613,99.567,110.36
	c57.74,37.531,130.646,14.516,194.822,21.647c35.406,3.934,64.111,35.218,99.576,41.129c47.555,7.926,97.115-6.389,145.036,0
	c23.795,3.173,46.154,15.868,69.271,21.647c38.022,9.506,166.275,40.58,199.152,30.306c32.944-10.295,49.016-52.417,80.095-62.776
	c32.382-10.794,105.774,14.749,145.035,10.823c31.382-3.138,64.968-9.755,93.081-23.812c20.335-10.166,30.308-19.049,54.118-23.811
	c31.329-6.266,61.563,4.012,93.082-6.495c23.513-7.837,50.091-32.646,64.941-51.952c9.534-12.395,12.905-26.727,21.647-38.965
	c20.127-28.177,58.341-80.411,45.459-119.059c-18.44-55.321-61.737-90.917-123.389-90.917c-35.736,0-72.646-2.738-108.234,0
	c-49.158,3.781-98.032,11.641-147.2,15.153c-98.823,7.058-199.634,2.164-298.729,2.164c-40.502,0-83.117,3.661-123.388,0
	c-54.021-4.911-107.973-1.857-162.354-4.329c-76.883-3.495-154.343-7.089-231.622-4.329c-24.642,0.88-49.028,7.02-73.601,8.658
	c-19.296,1.287-37.075,1.129-56.282,4.33c-45.191,7.532-127.718,10.951-127.718,73.6
	C2506.171,267.398,2534.476,291.008,2553.804,320z"/>
</svg>
