<?xml version="1.0" encoding="utf-8"?>
<!-- Generator: Adobe Illustrator 16.2.1, SVG Export Plug-In . SVG Version: 6.00 Build 0)  -->
<!DOCTYPE svg PUBLIC "-//W3C//DTD SVG 1.1//EN" "http://www.w3.org/Graphics/SVG/1.1/DTD/svg11.dtd">
<svg version="1.1" id="Layer_1" xmlns="http://www.w3.org/2000/svg" xmlns:xlink="http://www.w3.org/1999/xlink" x="0px" y="0px"
	 viewBox="2684.5 843.308 966.826 941.669"
	 enable-background="new 2684.5 843.308 966.826 941.669" xml:space="preserve">
<g>
	<path fill="none" stroke="#000000" stroke-width="2" vector-effect="non-scaling-stroke" d="M3293.129,1597.294c-148.945-113.701-286.044-243.215-439.516-350.924
		c-22.463-15.765-46.305-29.456-69.795-43.629c-9.213-5.558-32.371-21.958-30.181-11.38
		c26.438,127.612,296.572,303.317,399.903,364.2c45.742,26.953,179.455,115.308,247.11,79.671
		c31.521-16.604,43.376-74.787,45.272-102.434c11.156-162.684-81.744-326.864-186.748-443.87
		c-22.076-24.599-72.724-78.158-98.09-64.493c-63.666,34.297,57.358,390.837,71.682,449.561
		c6.874,28.182,12.959,56.627,16.977,85.36c1.664,11.896,10.469,30.251,0,36.04c-46.393,25.658-270.428-334.214-299.928-379.376
		c-15.225-23.308-30.576-46.538-45.271-70.185c-4.472-7.194-18.62-27.014-11.318-22.763c84.756,49.343,172.722,82.452,262.2,123.297
		c110.134,50.273,178.94,84.959,281.064,147.956c31.662,19.533,62.15,40.964,92.432,62.599
		c17.532,12.526,34.088,26.384,50.931,39.833c4.875,3.894,19.189,14.998,13.204,13.278
		c-125.237-35.98-238.721-104.663-348.972-172.615c-86.688-53.428-166.824-109.979-250.884-166.926
		c-22.563-15.284-45.13-30.566-67.907-45.525c-8.49-5.575-33.945-21.995-26.409-15.175
		c53.786,48.679,122.991,80.758,181.087,123.297c106.711,78.137,193.027,168.266,275.406,271.255
		c13.722,17.154,75.055,106.958,96.203,106.226c64.264-2.229-25.482-396.98-35.84-440.077
		c-7.203-29.971-16.415-59.417-24.523-89.154c-2.741-10.056-7.995-40.768-7.545-30.35c3.756,86.876,13.848,181.428-15.091,265.562
		c-15.452,44.926-40.278,86.625-67.907,125.195c-25.193,35.171-197.945,223.77-258.429,119.505
		c-48.564-83.719,64.968-282.716,88.659-358.513c35.079-112.242,35.328-145.744,39.612-259.872
		c1.163-31.019,16.167-70.999-5.659-92.948c-12.643-12.71-25.111,81.603-26.409,89.154
		c-23.376,136.095-31.073,272.171-58.478,407.83c-25.604,126.766-13.377,74.545-45.271,178.308
		c-3.289,10.704-8.374,43.4-9.431,32.246c-6.803-71.822,27.312-231.365,37.727-303.501c6.932-48.023,11.317-172.797,54.704-214.348
		c21.346-20.443,60.926,14.518,69.795,22.762c62.614,58.214,120.313,155.195,101.861,244.698
		c-27.244,132.146-222.924,145.624-326.337,127.093c-30.148-5.404-58.944-17.494-86.771-30.351
		c-8.24-3.807-63.924-33.289-69.795-56.907c-12.441-50.047,145.498-71.348,156.565-73.979
		c130.069-30.915,297.802-70.542,431.973-49.319c48.63,7.693,130.19,40.541,105.634,108.123
		c-20.463,56.316-72.396,81.727-122.611,106.226c-146.496,71.47-309.122,59.72-394.245-98.638
		c-27.094-50.405-43.297-144.009-30.183-202.968c35.909-161.422,311.649-30.141,392.359,1.897
		c47.23,18.748,185.32,73.468,205.611,134.679c8.797,26.541-44.01,37.619-52.817,41.731
		c-110.68,51.674-227.517,88.574-335.769,146.061c-22.22,11.799-42.751,26.565-64.136,39.834
		c-9.097,5.645-33.794,24.393-28.295,15.176c75.978-127.337,91.388-165.402,103.749-322.471
		c3.863-49.096,3.589-155.027-3.772-210.555c-4.468-33.691-19.747-38.838-22.637-34.144
		c-64.487,104.755-24.384,193.411,9.432,301.604c42.865,137.153,93.746,272.94,116.953,415.418
		c6.386,39.202,13.362,113.128,0,117.606c-11.207,3.757-23.797-6.691-32.067-15.175
		c-122.681-125.834-213.098-416.543-237.678-588.034c-1.56-10.873-15.517-109.584,5.658-134.679
		c26.657-31.593,83.884-11.917,109.407,0c141.602,66.111,301.452,234.214,354.631,381.273
		c11.917,32.953,36.726,130.217-9.432,165.028c-17.287,13.039-42.729,12.455-64.135,9.486
		c-129.003-17.894-218.822-124.426-309.359-206.762c-37.727-34.309-241.894-199.054-254.656-250.389
		c-5.642-22.696,44.807,13.162,66.022,22.763c30.003,13.577,58.522,30.352,88.658,43.629
		c92.939,40.943,129.195,51.646,228.246,77.771c66.741,17.604,235.545,82.543,264.088-30.351
		c36.909-145.986-143.377-361.832-262.201-189.688c-94.22,136.5-72.721,284.11-205.611,449.562
		c-18.636,23.203-9.801-59.415-7.545-89.154c4.601-60.661,28.814-241.813,33.954-295.913c7.75-81.571,7.728-163.241,15.09-244.699
		c2.548-28.163-9.216,55.81-15.09,83.464c-8.22,38.7-16.522,77.406-26.409,115.71c-28.025,108.584-102.941,267.451-86.771,381.274
		c3.619,25.479,46.652-21.701,67.908-36.041c86.45-58.323,166.011-128.071,273.519-142.266
		c150.418-19.863,259.131,90,358.404,187.79c13.215,13.018,24.189,51.948,18.863,53.113
		c-84.644,18.503-284.096-157.453-337.655-201.07c-48.549-39.538-95.644-80.85-143.361-121.399
		c-41.568-35.326-82.95-70.875-124.498-106.227c-23.845-20.29-47.684-40.591-71.681-60.7c-7.638-6.4-14.581-17.071-24.521-17.071
		c-15.721,0,16.414,27.584,28.295,37.937c17.131,14.931,37.41,25.784,56.59,37.938c154.348,97.804,299.379,192.865,428.198,324.366
		c28.267,28.856,84.993,78.356,73.565,96.741c-2.331,3.754-9.013,1.357-13.203,0c-235.436-76.242-375.462-138.246-550.81-316.779
		c-21.329-21.716-40.332-45.718-58.478-70.185c-19.449-26.226-30.622-50.046-24.522-53.113c4.638-2.331,10.412,1.549,15.091,3.794
		c23.1,11.086,45.486,23.627,67.909,36.041c184.037,101.891,369.867,211.207,530.061,349.026
		c33.181,28.548,94.626,88.004,122.611,127.091c23.358,32.624,24.763,59.24,16.978,58.805
		c-89.739-5.014-293.92-230.636-350.859-288.327c-39.787-40.313-80.102-80.253-116.952-123.297
		c-44.978-52.534-88.018-106.855-128.271-163.133c-20.573-28.762-32.362-63.661-35.841-98.638
		c-7.938-79.831,90.544-47.445,132.044-30.349c172.528,71.068,411.326,328.203,445.177,517.848
		c2.578,14.444,16.27,95.944-9.433,115.71c-34.556,26.573-125.923-22.028-139.589-30.351
		c-89.339-54.396-152.452-126.663-226.361-199.172c-144.972-142.228-90.053-89.052-232.02-220.039
		c-23.935-22.084-47.811-44.233-71.68-66.39c-10.455-9.705-40.242-40.468-30.182-30.351
		c38.886,39.103,88.775,97.818,122.612,138.473c49.192,59.104,109.144,135.121,139.589,206.761
		c21.838,51.385,41.398,136.156,30.181,195.378c-2.859,15.096-23.838,52.798-49.044,37.938
		c-72.227-42.575-66.643-249.947-66.023-318.676c0.572-63.283-10.591-177.619,56.592-220.039
		c87.819-55.451,217.309,84.02,260.313,140.369c36.038,47.222,69.144,112.05,82.999,170.72c8.77,37.132,8.129,109.518-5.658,113.812
		c-167.76,52.273-391.343-206.928-473.472-330.058c-6.683-10.018-74.567-112.277-50.931-140.369
		c25.249-30.007,161.926,58.917,171.656,64.494c166.459,95.412,368.384,256.713,494.221,402.14
		c36.925,42.673,72.969,108.83,60.363,117.605c-25.442,17.713-195.22-99.745-201.838-104.326
		c-135.299-93.678-262.489-198.794-392.358-299.708c-17.536-13.626-106.864-68.862-124.498-104.329
		c-1.192-2.399,3.859,3.71,5.659,5.69c11.407,12.564,22.498,25.417,33.954,37.938c17.47,19.096,35.571,37.606,52.816,56.907
		c84.088,94.104,170.281,197.551,216.93,316.779c1.866,4.768,17.296,57.708,11.317,66.391c-13.064,18.976-87.462-29.25-98.09-36.041
		c-116.035-74.143-215.285-183.399-273.519-309.192c-17.03-36.786-21.532-73.49-18.863-73.979
		c39.763-7.27,140.926,74.625,164.112,91.052c131.73,93.328,251.236,201.524,367.834,312.986c21.27,20.33,42.645,40.64,62.25,62.595
		c8.157,9.137,13.979,20.137,20.749,30.352c2.034,3.068,7.3,6.188,5.66,9.484c-1.435,2.884-6.814-0.034-9.433-1.897
		c-23.412-16.651-45.778-34.771-67.908-53.112c-161.258-133.648-307.348-285.686-460.266-428.696
		c-23.77-22.229-46.388-45.672-69.795-68.287c-4.311-4.166-33.78-31.178-32.068-30.351c140.984,68.05-49.418-15.104,122.612,60.701
		c185.991,81.956,381.908,146.191,556.47,252.286c24.949,15.162,118.84,83.476,118.84,91.05c0,3.687-6.602-3.348-9.432-5.692
		c-18.585-15.39-37.014-30.999-54.704-47.421c-31.37-29.119-61.835-59.212-92.431-89.153
		c-116.613-114.125-228.202-230.714-320.678-366.099c-16.118-23.598-29.35-49.071-43.385-73.979
		c-14.955-26.538-24.533-53.105-30.182-51.216c-14.539,4.873-4.438,21.686,1.886,37.938c11.44,29.396,53.013,88.144,67.908,111.916
		c49.347,78.747,104.063,163.913,130.157,254.183c3.614,12.499,23.762,103.772,0,125.194c-10.768,9.708-29.709,4.728-43.385,0
		c-125.342-43.327-175.957-171.416-247.11-271.255c-10.928-15.332-22.804-30.066-35.841-43.628
		c-7.818-8.132-31.2-26.439-30.182-15.175c0.637,7.04-0.038,14.925,3.773,20.865c22.909,35.709,58.843,61.055,86.771,92.948
		c103.403,118.08,184.722,253.689,269.746,385.066c21.848,33.76,37.314,57.311,49.045,94.845c3.04,9.727,13.851,31.478,3.772,30.351
		c-22.071-2.467-134.187-127.983-145.247-138.473c-95.317-90.404-95.978-86.658-205.611-168.822
		c-28.839-21.614-57.532-43.431-86.771-64.495c-12.9-9.294-26.34-17.811-39.614-26.557c-5.415-3.567-16.977-15.994-16.977-9.484
		c0,23.777,73.127,108.116,81.112,119.505c32.819,46.804,79.846,116.442,107.521,166.926c11.407,20.807,22.033,42.19,30.182,64.494
		c4.125,11.292,13.583,38.562,1.886,36.04c-99.747-21.493-224.847-127.036-294.269-199.173
		c-39.988-41.552,67.619-455.426,77.127-461.4c23.443-14.734-78.064,386.074-52.604,396.907
		c129.684,55.173,263.642,145.059,348.972-26.557c19.467-39.151,26.916-84.63,33.954-127.092
		c3.185-19.213-22.622,31.625-33.954,47.422c-55.738,77.707-113.135,157.422-173.543,231.419
		c-122.652,150.25-122.973-67.354-128.27-153.646c-1.318-21.467-1.422-42.992-1.888-64.494c-0.191-8.872-2.885-34.021,1.888-26.557
		c86.716,135.646,144.438,201.249,256.541,318.678c60.111,62.965,57.109,55.085,105.636,117.606
		c7.736,9.969,32.235,38.519,22.636,30.35c-82.226-69.963-169.348-131.288-254.656-197.276
		c-30.703-23.75-71.496-52.761-90.545-89.152c-4.141-7.914-12.289-29.127-3.771-26.558
		c38.864,11.725,118.083,135.352,150.905,172.618c13.348,15.153,50.829,62.791,37.728,47.421
		c-36.789-43.159-59.342-69.869-82.999-127.092c-36.409-88.069-46.443-245.225-13.205-335.749
		c16.087-43.808,47.76-85.045,98.09-83.462c10.231,0.321,22.436-1.036,30.182,5.69c8.131,7.062,10.132,19.611,11.318,30.351
		c2.015,18.235,4.663,37.884-1.887,55.01c-39.082,102.184-221.582,255.772-309.359,318.677
		c-23.448,16.804-48.541,31.206-73.566,45.525c-15.186,8.688-45.272,8.987-45.272,26.556c0,3.225,6.285-1.277,9.432-1.897
		c25.777-5.069,51.583-9.994,77.34-15.175c85.314-17.157,168.448-36.994,247.11-75.875c15.193-7.51,28.828-17.864,43.386-26.557
		c6.305-3.764,25.819-13.712,18.863-11.381c-63.772,21.376-167.023,76.962-224.474,11.381
		c-27.83-31.767-31.248-72.444-33.955-111.916c-1.859-27.124,0-108.754,0-81.566c0,102.546,8.744,199.968,73.568,284.532
		c27.898,36.398,113.072,84.854,86.771,53.113c-40.333-48.671-112.272-68.353-143.362-125.194
		c-0.395-0.724-3.654-26.438-1.886-28.452c33.991-38.737,167.044-72.441,220.702-110.02c15.341-10.744,27.816-25.128,41.499-37.938
		c5.207-4.875,22.107-13.998,15.091-15.175c-27.425-4.597-64.052,23.43-79.227,30.351
		c-102.975,46.959-209.256,86.722-298.041,159.338c-18.974,15.519-36.041,33.602-50.931,53.113
		c-7.264,9.517,5.564,18.438,17.43,19.693c93.767,9.925,140.595-93.893,180.635-161.96c11.454-19.472,19.439-40.824,30.182-60.701
		c9.905-18.326,21.307-34.187,24.522-32.246c3.279,1.979,1.674,7.54,1.887,11.381c1.047,18.951-0.232,38.047,1.886,56.907
		c5.266,46.893,15.781,84.696,37.726,127.091c13.051,25.207,28.904,48.916,45.274,72.081
		c17.568,24.865,86.309,108.607,107.521,134.68"/>
	<path fill="none" stroke="#000000" stroke-width="2" vector-effect="non-scaling-stroke" d="M3428.777,1184.68c-129.849,141.93-277.756,272.57-400.762,418.813
		c-18.003,21.405-33.64,44.122-49.823,66.506c-6.349,8.78-25.077,30.848-12.997,28.761
		c145.734-25.192,346.394-282.604,415.922-381.067c30.781-43.588,131.684-171.001,90.985-235.471
		c-18.961-30.036-85.407-41.332-116.98-43.14c-185.786-10.631-373.285,77.894-506.906,177.953
		c-28.094,21.034-89.259,69.296-73.653,93.468c39.168,60.667,446.342-54.657,513.406-68.306
		c32.183-6.549,64.668-12.348,97.482-16.177c13.586-1.585,34.547-9.975,41.158,0c29.302,44.208-381.678,257.689-433.254,285.8
		c-26.618,14.509-53.146,29.136-80.151,43.14c-8.217,4.262-30.85,17.743-25.997,10.786
		c56.353-80.764,94.162-164.587,140.809-249.852c57.413-104.944,97.024-170.512,168.969-267.824
		c22.307-30.172,46.779-59.223,71.489-88.079c14.305-16.706,30.129-32.481,45.489-48.529c4.446-4.646,17.129-18.287,15.163-12.583
		c-41.089,119.339-119.526,227.477-197.128,332.533c-61.016,82.604-125.6,158.967-190.633,239.066
		c-17.455,21.502-34.906,43.005-51.991,64.709c-6.365,8.091-25.118,32.348-17.329,25.165
		c55.59-51.252,92.227-117.198,140.809-172.557c89.231-101.684,192.16-183.937,309.777-262.435
		c19.588-13.074,122.146-71.519,121.31-91.671c-2.545-61.236-453.358,24.282-502.575,34.152
		c-34.227,6.863-67.855,15.641-101.815,23.367c-11.483,2.613-46.557,7.619-34.66,7.19c99.213-3.58,207.194-13.195,303.277,14.378
		c51.306,14.726,98.927,38.382,142.975,64.711c40.165,24.007,255.549,188.62,136.478,246.255
		c-95.608,46.277-322.867-61.907-409.427-84.481c-128.183-33.428-34.613-405.913-164.949-409.995
		c-35.423-1.109-81.082-15.405-106.147,5.394c-14.516,12.046,93.193,23.929,101.815,25.165
		c155.423,22.275,178.993,401.857,333.917,427.97c144.77,24.399,85.132,12.747,203.631,43.138
		c12.225,3.136,49.564,7.98,36.825,8.987c-82.021,6.482-264.222-26.025-346.603-35.949c-54.845-6.605-197.338-10.783-244.789-52.128
		c-23.347-20.34,16.58-58.056,25.995-66.507c66.479-59.664,177.236-114.647,279.45-97.062
		c150.912,25.959,166.304,212.423,145.14,310.966c-6.17,28.728-19.978,56.167-34.66,82.682
		c-4.348,7.854-38.018,60.913-64.989,66.509c-57.152,11.854-81.479-138.645-84.484-149.19
		c-35.307-123.944-80.561-283.775-56.324-411.626c8.788-46.339,46.3-124.058,123.48-100.658
		c64.314,19.499,93.331,68.986,121.311,116.836c81.619,139.596,68.199,294.561-112.646,375.675
		c-57.562,25.816-164.46,41.256-231.793,28.76c-184.346-34.217-34.42-296.969,2.168-373.877
		c21.409-45.005,83.9-176.592,153.805-195.927c30.311-8.382,42.963,41.938,47.658,50.33
		c59.013,105.467,101.152,216.8,166.803,319.952c13.476,21.174,30.339,40.738,45.492,61.115
		c6.445,8.669,27.856,32.202,17.331,26.962c-145.421-72.398-188.893-87.083-368.268-98.861
		c-56.067-3.683-45.212-375.669-108.626-368.653c-38.476,4.257-44.354,18.816-38.992,21.571
		c119.631,61.45,89.048,395.481,212.606,363.258c156.631-40.846,311.702-89.328,474.413-111.443
		c44.77-6.085,129.193-12.732,134.31,0c4.291,10.679-7.644,22.676-17.33,30.558c-143.704,116.902-475.698,203.06-671.545,226.483
		c-12.417,1.485-125.146,14.784-153.806-5.394c-36.079-25.4-13.608-79.932,0-104.254c75.5-134.931,267.478-287.252,435.422-337.927
		c37.635-11.355,148.708-34.996,188.465,8.988c14.89,16.474,14.224,40.716,10.832,61.113
		c-20.433,122.928-142.096,208.516-236.125,294.788c-39.181,35.95-227.322,230.498-285.947,242.661
		c-25.919,5.376,15.031-42.696,25.996-62.913c15.504-28.59,34.66-55.766,49.824-84.481c46.758-88.562,58.979-123.111,88.817-217.496
		c20.103-63.596,94.266-224.45-34.662-251.647c-166.72-35.171-413.218,136.624-216.626,249.851
		c155.886,89.781,324.459,69.294,513.406,195.926c26.498,17.757-67.854,9.34-101.815,7.19
		c-69.275-4.384-276.154-27.457-337.938-32.354c-93.154-7.386-54.594-379.612-147.62-386.627
		c-32.162-2.427,63.736,8.781,95.317,14.38c44.196,7.833-43.431,387.99,0.312,397.411c124.004,26.706,305.433,98.093,435.422,82.684
		c29.098-3.448-24.785-44.455-41.16-64.709c-66.605-82.379-146.258-158.19-162.469-260.634
		c-22.685-143.333,102.783-246.928,214.46-341.523c14.865-12.592,59.323-23.051,60.655-17.976
		c21.131,80.657-179.813,270.715-229.626,321.751c-45.152,46.263-92.331,91.139-138.641,136.609
		c-40.343,39.609-80.939,79.042-121.312,118.634c-23.171,22.722-46.354,45.436-69.319,68.303
		c-7.311,7.278-19.496,13.895-19.496,23.367c0,14.981,31.502-15.642,43.325-26.963c17.051-16.323,29.445-35.646,43.326-53.924
		c111.692-147.077,220.255-285.276,370.431-408.028c32.955-26.936,89.485-80.99,110.48-70.102c4.287,2.223,1.549,8.589,0,12.582
		c-87.07,224.346-157.879,357.776-361.767,524.865c-24.8,20.324-52.212,38.433-80.151,55.723
		c-29.951,18.532-57.154,29.181-60.657,23.368c-2.664-4.42,1.769-9.922,4.333-14.382c12.66-22.01,26.982-43.343,41.159-64.709
		c116.362-175.368,241.2-352.445,398.595-505.093c32.601-31.617,100.5-90.169,145.141-116.836
		c37.256-22.259,67.651-23.597,67.153-16.178c-5.725,85.513-263.389,280.075-329.273,334.333
		c-46.039,37.912-91.651,76.328-140.808,111.442c-59.995,42.859-122.031,83.872-186.3,122.23
		c-32.847,19.604,59.129-341.41,19.185-338.095c-91.168,7.564-54.183-86.28-34.658-125.824
		c-339.398,687.488,712.184-89.584,459.561-51.96c16.495-2.457,109.57-15.505,132.143,8.987
		c30.347,32.929-25.159,119.991-34.662,133.015c-62.121,85.13-144.651,145.27-227.458,215.697
		c-162.425,138.144-101.699,85.812-251.288,221.092c-25.221,22.807-50.515,45.559-75.818,68.303
		c-11.083,9.962-46.214,38.347-34.66,28.76c44.654-37.054,111.711-84.593,158.137-116.836
		c67.498-46.875,154.312-104.002,236.125-133.013c58.682-20.811,155.493-39.449,223.125-28.76
		c17.24,2.724,60.295,22.714,43.326,46.732c-48.622,68.825-285.445,63.506-363.934,62.914
		c-72.271-0.546-202.843,10.092-251.289-53.927c-63.324-83.683,95.951-207.072,160.305-248.053
		c53.927-34.339,127.963-65.885,194.966-79.088c42.403-8.357,125.07-7.746,129.978,5.392
		c59.693,159.856-236.317,372.91-376.934,451.169c-11.44,6.368-128.224,71.057-160.303,48.533
		c-34.27-24.06,67.283-154.3,73.65-163.572c108.965-158.617,293.172-351.031,459.252-470.94
		c48.734-35.186,124.286-69.531,134.309-57.521c20.229,24.245-113.913,186.025-119.145,192.331
		c-106.982,128.925-227.025,250.125-342.271,373.878c-15.56,16.709-78.642,101.83-119.146,118.633
		c-2.74,1.137,4.237-3.677,6.498-5.393c14.35-10.869,29.027-21.438,43.324-32.354c21.809-16.646,42.949-33.896,64.99-50.329
		c107.469-80.127,225.605-162.259,361.767-206.711c5.446-1.778,65.903-16.481,75.819-10.785
		c21.67,12.449-33.403,83.343-41.159,93.47c-84.673,110.569-209.444,205.146-353.103,260.636
		c-42.01,16.229-83.928,20.519-84.484,17.974c-8.302-37.89,85.223-134.287,103.982-156.382
		c106.582-125.525,230.143-239.401,357.436-350.508c23.219-20.267,46.41-40.635,71.484-59.317
		c10.435-7.773,22.996-13.319,34.662-19.772c3.504-1.938,7.065-6.955,10.831-5.392c3.294,1.366-0.04,6.492-2.167,8.987
		c-19.016,22.31-39.709,43.623-60.656,64.709c-152.627,153.663-326.257,292.87-489.578,438.586
		c-25.385,22.65-52.157,44.203-77.983,66.508c-4.76,4.107-35.606,32.188-34.663,30.558c77.715-134.344-17.248,47.09,69.324-116.836
		c93.594-177.231,166.952-363.921,288.113-530.26c17.317-23.773,95.331-113.241,103.981-113.241c4.209,0-3.823,6.291-6.501,8.987
		c-17.575,17.709-35.402,35.27-54.156,52.127c-33.254,29.894-67.619,58.924-101.814,88.077
		c-130.334,111.12-263.479,217.453-418.09,305.572c-26.949,15.359,75.79-344.278,47.347-330.906
		c-30.307,14.25-60.647,23.379-58.49,28.762c5.565,13.854,24.765,4.229,43.324-1.798c33.571-10.901-31.168,321.732-4.021,307.536
		c89.931-47.021,187.191-99.159,290.281-124.024c14.275-3.444,118.51-22.643,142.975,0c11.086,10.26,5.398,28.308,0,41.34
		c-49.48,119.438-195.76,167.67-309.778,235.472c-17.509,10.413-34.335,21.729-49.824,34.152
		c-9.285,7.448-30.194,29.729-17.329,28.76c8.039-0.606,17.045,0.037,23.829-3.596c40.778-21.83,69.726-56.07,106.146-82.684
		c134.851-98.531,289.719-176.021,439.753-257.039c38.556-20.819,65.45-35.557,108.314-46.735
		c11.108-2.897,35.948-13.198,34.66-3.595c-2.816,21.031-146.158,127.866-158.137,138.405
		c-103.242,90.827-98.966,91.456-192.799,195.926c-24.684,27.48-49.6,54.822-73.654,82.684
		c-10.614,12.294-20.34,25.099-30.328,37.748c-4.072,5.16-18.265,16.178-10.831,16.178c27.153,0,123.471-69.683,136.477-77.292
		c53.45-31.272,132.979-76.085,190.631-102.456c23.762-10.87,48.183-20.997,73.654-28.762c12.896-3.931,44.037-12.943,41.159-1.797
		c-24.547,95.051-145.078,214.257-227.46,280.407c-47.453,38.105-94.989,61.188-101.814,52.129
		c-16.827-22.34,15.791-51.234,28.162-75.495c63.01-123.575,165.661-251.223-30.327-332.534
		c-44.711-18.55-96.648-25.648-145.141-32.355c-21.941-3.035,36.115,21.559,54.157,32.355
		c88.742,53.113,179.776,107.807,264.283,165.369c171.587,116.875-76.92,117.181-175.467,122.228
		c-24.516,1.256-49.097,1.354-73.653,1.798c-10.133,0.183-38.853,2.75-30.327-1.798c154.908-82.63,229.829-137.634,363.934-244.458
		c71.907-57.279,62.907-54.419,134.308-100.659c11.386-7.372,43.99-30.717,34.661-21.57
		c-79.899,78.354-149.933,161.371-225.293,242.662c-27.122,29.258-60.254,68.128-101.813,86.279
		c-9.037,3.945-33.264,11.711-30.329,3.594c13.389-37.035,154.573-112.521,197.133-143.8c17.305-12.717,71.708-48.433,54.155-35.95
		c-49.288,35.056-79.791,56.549-145.141,79.092c-100.575,34.694-280.05,44.254-383.432,12.583
		c-50.028-15.329-97.121-45.51-95.314-93.469c0.367-9.751-1.185-21.38,6.499-28.761c8.065-7.749,22.396-9.655,34.66-10.785
		c20.825-1.92,43.265-4.443,62.822,1.797c116.696,37.242,292.097,211.146,363.935,294.788
		c19.189,22.344,35.637,46.256,51.989,70.102c9.921,14.47,10.266,43.14,30.329,43.14c3.68,0-1.46-5.988-2.168-8.987
		c-5.79-24.562-11.413-49.153-17.33-73.697c-19.594-81.295-42.248-160.513-86.648-235.471
		c-8.579-14.478-20.403-27.471-30.329-41.342c-4.3-6.008-15.66-24.604-12.998-17.974c24.412,60.768,87.892,159.154,12.998,213.899
		c-36.278,26.519-82.734,29.775-127.811,32.355c-30.977,1.773-124.198,0-93.15,0c117.108,0,228.368-8.333,324.94-70.103
		c41.567-26.586,96.905-107.748,60.656-82.684c-55.584,38.433-78.059,106.982-142.975,136.609
		c-0.824,0.375-30.191,3.482-32.492,1.796c-44.238-32.389-82.73-159.174-125.645-210.306c-12.27-14.617-28.695-26.506-43.326-39.544
		c-5.566-4.962-15.986-21.066-17.329-14.38c-5.25,26.133,26.757,61.035,34.661,75.494c53.628,98.125,99.036,199.4,181.965,284.002
		c17.723,18.08,38.374,34.345,60.656,48.532c10.867,6.922,37.56,22.092,38.993,10.786
		c11.335-89.352-123.729-161.367-201.462-199.521c-22.238-10.915-46.623-18.524-69.322-28.76
		c-20.93-9.438-39.043-20.303-36.826-23.368c2.26-3.126,8.61-1.595,12.996-1.798c21.643-0.997,43.452,0.221,64.99-1.797
		c53.553-5.018,96.724-15.038,145.14-35.949c28.788-12.436,55.862-27.542,82.317-43.143
		c28.398-16.74,124.033-82.242,153.807-102.455"/>
</g>
</svg>
