<?xml version="1.0" encoding="utf-8"?>
<!-- Generator: Adobe Illustrator 16.2.1, SVG Export Plug-In . SVG Version: 6.00 Build 0)  -->
<!DOCTYPE svg PUBLIC "-//W3C//DTD SVG 1.1//EN" "http://www.w3.org/Graphics/SVG/1.1/DTD/svg11.dtd">
<svg version="1.1" id="Layer_1" xmlns="http://www.w3.org/2000/svg" xmlns:xlink="http://www.w3.org/1999/xlink" x="0px" y="0px"
	 viewBox="4119.915 910.075 161.991 713.965"
	 enable-background="new 4119.915 910.075 161.991 713.965" xml:space="preserve">
<path fill="none" stroke="#000000" stroke-width="2" vector-effect="non-scaling-stroke" d="M4146.841,904.068c0,20.741-0.612,41.693,1.55,62.145
	c3.244,30.66,12.736,58.265,12.736,89.883c0,38.167-1.684,76.38-1.582,114.413c0.038,14.09,0.549,28.338,0.031,42.429
	c-1.304,35.499-2.766,69.281-7.176,104.564c-3.483,27.869-13.364,50.671-17.562,73.762c-1.515,8.33,0.848,17.87,0,26.344
	c-3.909,39.096,15.584,84.69,8.781,119.425"/>
<path fill="none" stroke="#000000" stroke-width="2" vector-effect="non-scaling-stroke" d="M4135.281,1530.035c12.324,8.328,23.878,17.884,36.579,25.822
	c8.856,5.534,17.021,12.012,25.821,17.645c7.558,4.836,36.95,23.824,42.174,29.049c2.364,2.362-4.158,10.254-5.164,12.265
	c-0.137,0.274-0.969,5.701-2.15,4.519c-10.258-10.258-24.007-19.406-36.477-26.796c-20.678-12.254-35.854-27.486-57.359-38.239
	c-2.825-1.412-12.104-4.625-13.557-7.531C4125.025,1546.521,4133.146,1530.035,4135.281,1530.035z"/>
<path fill="none" stroke="#000000" stroke-width="2" vector-effect="non-scaling-stroke" d="M4251.606,872.321c-11.981,24.908-1.463,55.339-3.101,81.635
	c-1.883,30.218-2.809,58.604-1.698,89.682c1.519,42.521,1.624,85.048,1.624,127.677c0,27.461,4.985,53.008-2.079,79.73
	c-7.093,26.833,3.939,53.715,0.44,81.715c-4.342,34.732-8.739,42.836-4.533,80.685c0.816,7.349,1.083,28.192,8.16,31.729
	c10.811,5.406,16.869-2.57,19.037-9.065c2.797-8.389-5.469-20.82-11.787-14.505c-4.214,4.216,8.533,8.695,11.787,5.439
	c3.805-3.807,6.437-7.253,12.69-7.253"/>
</svg>
