<?xml version="1.0" encoding="utf-8"?>
<!-- Generator: Adobe Illustrator 16.2.1, SVG Export Plug-In . SVG Version: 6.00 Build 0)  -->
<!DOCTYPE svg PUBLIC "-//W3C//DTD SVG 1.1//EN" "http://www.w3.org/Graphics/SVG/1.1/DTD/svg11.dtd">
<svg version="1.1" id="Layer_1" xmlns="http://www.w3.org/2000/svg" xmlns:xlink="http://www.w3.org/1999/xlink" x="0px" y="0px"
	 viewBox="1866.832 254.5 427.41 724" enable-background="new 1866.832 254.5 427.41 724"
	 xml:space="preserve">
<path fill="#E4E4CD" d="M1911.532,981.465c15.526-31.051,40.05-67.648,42.667-101.674c1.851-24.045,16.441-128.91,17.785-153.113
	c8.504-153.063-48.263-335.417-104.653-474.651l104.811-0.328c30.852,46.286,52.065,77.723,97.271,66.421
	c11.443-2.861,22.579-23.779,32.872-28.926c6.023-3.011,20.795-16.21,28.031-18.019c13.224-3.306,26.226-13.326,38.526-19.476
	h123.207c-27.23,12.939-71.676,52.383-86.438,70.096c-92.578,111.094-88.12,177.482-88.12,316.434c0,44.941-5.568,93.641,0,138.189
	c2.738,21.906,14.273,110.777,22.552,131.475c4.096,10.238,27.24,42.004,34.957,46.914c10.118,6.439,33.929,21.537,36.325,26.33
	L1911.532,981.465z"/>
<path fill-opacity="0" stroke="#000000" stroke-width="2" vector-effect="non-scaling-stroke" stroke-linecap="round" d="M1867.832,252.528
	c56.391,139.233,113.156,321.586,104.653,474.649c-1.345,24.203-15.936,129.068-17.785,153.113
	c-2.618,34.025-27.142,70.623-42.667,101.674"/>
<path fill-opacity="0" stroke="#000000" stroke-width="2" vector-effect="non-scaling-stroke" stroke-linecap="round" d="M2293.242,252.528
	c-27.229,12.938-71.675,52.382-86.437,70.096c-92.578,111.093-88.12,177.481-88.12,316.433c0,44.941-5.569,93.641,0,138.189
	c2.738,21.906,14.273,110.777,22.552,131.475c4.095,10.238,27.24,42.004,34.956,46.914c10.119,6.439,33.929,21.537,36.325,26.33"/>
<path fill-opacity="0" stroke="#000000" stroke-width="2px" vector-effect="non-scaling-stroke" stroke-linecap="round" d="M1973.336,252.528
	c30.852,46.285,52.064,77.722,97.271,66.421c11.443-2.861,22.579-23.779,32.872-28.926c6.023-3.012,20.795-16.211,28.031-18.02
	c13.224-3.306,26.226-13.325,38.525-19.475"/>
</svg>
