<?xml version="1.0" encoding="utf-8"?>
<!-- Generator: Adobe Illustrator 16.2.1, SVG Export Plug-In . SVG Version: 6.00 Build 0)  -->
<!DOCTYPE svg PUBLIC "-//W3C//DTD SVG 1.1//EN" "http://www.w3.org/Graphics/SVG/1.1/DTD/svg11.dtd">
<svg version="1.1" id="Layer_1" xmlns="http://www.w3.org/2000/svg" xmlns:xlink="http://www.w3.org/1999/xlink" x="0px" y="0px"
	 viewBox="0 980.5 1200 219.5" enable-background="new 0 980.5 1200 219.5" xml:space="preserve">
<path fill="#A3CEA3" stroke="#000000" stroke-width="2" vector-effect="non-scaling-stroke" d="M-106.693,986.673
	c41.951-12.775,115.132,4.371,161.273,6.494c24.517,1.128,49.39-1.053,73.917,0c63.609,2.732,130.095,16.836,191.511,28.141
	c67.06,12.346,129.243,38.621,198.23,45.459c93.188,9.237,186.043,21.598,278.869,32.471c54.102,6.338,100.51,22.762,151.191,34.636
	c47.65,11.164,99.062,19.571,147.832,28.141c14.682,2.58,275.389,59.117,278.869,60.612c8.031,3.449,15.463,0.869,23.518,4.329
	c6.564,2.82,40.877,23.453,30.238,30.306c-3.059,1.973-213.064,0-231.828,0c-291.338,0-579.957-23.121-870.201-32.471
	c-115.259-3.713-230.788,0.04-346.063-4.329c-38.246-1.45-97.45,4.325-131.035-6.494c-8.046-2.592-3.361-28.132-3.361-32.471
	c0-52.243-7.641-104.71-23.517-155.858"/>
</svg>